<svg width="190" height="377" viewBox="0 0 190 377" fill="none" xmlns="http://www.w3.org/2000/svg">
<rect x="3.5" y="3.5" width="183" height="370" rx="13" fill="white" stroke="#969696" stroke-width="6"/>
<path d="M6.5 16.5C6.5 10.9772 10.9772 6.5 16.5 6.5H173.5C179.023 6.5 183.5 10.9772 183.5 16.5V69.5H6.5V16.5Z" fill="#462749"/>
<path d="M15.932 30.66C15.612 30.66 15.356 30.5747 15.164 30.404C14.972 30.2333 14.876 29.9987 14.876 29.7V20.1C14.876 19.8013 14.972 19.5667 15.164 19.396C15.356 19.2253 15.612 19.14 15.932 19.14C16.2413 19.14 16.4973 19.2253 16.7 19.396C16.9027 19.5667 17.004 19.8013 17.004 20.1V29.7C17.004 29.9987 16.9027 30.2333 16.7 30.404C16.4973 30.5747 16.2413 30.66 15.932 30.66ZM20.247 30.66C19.927 30.66 19.671 30.5747 19.479 30.404C19.287 30.2333 19.191 29.9987 19.191 29.7V23.668C19.191 22.2493 19.6337 21.14 20.519 20.34C21.4043 19.54 22.631 19.14 24.199 19.14C25.767 19.14 26.9937 19.54 27.879 20.34C28.7643 21.14 29.207 22.2493 29.207 23.668V29.7C29.207 29.9987 29.111 30.2333 28.919 30.404C28.727 30.5747 28.471 30.66 28.151 30.66C27.831 30.66 27.5697 30.5747 27.367 30.404C27.175 30.2227 27.079 29.988 27.079 29.7V23.62C27.079 22.7133 26.8337 22.02 26.343 21.54C25.8523 21.06 25.1377 20.82 24.199 20.82C23.2603 20.82 22.5457 21.06 22.055 21.54C21.5643 22.02 21.319 22.7133 21.319 23.62V29.7C21.319 29.988 21.2177 30.2227 21.015 30.404C20.823 30.5747 20.567 30.66 20.247 30.66ZM36.1916 30.66C35.445 30.66 34.8263 30.404 34.3356 29.892C33.845 29.3693 33.413 28.5107 33.0396 27.316L30.8156 20.244C30.773 20.116 30.7516 19.9827 30.7516 19.844C30.7516 19.3747 31.0823 19.14 31.7436 19.14C32.0743 19.14 32.325 19.204 32.4956 19.332C32.677 19.46 32.8103 19.668 32.8956 19.956L35.1036 27.156C35.3063 27.8067 35.493 28.276 35.6636 28.564C35.8343 28.852 36.0103 28.996 36.1916 28.996C36.373 28.996 36.549 28.852 36.7196 28.564C36.8903 28.276 37.077 27.8067 37.2796 27.156L39.4876 19.956C39.573 19.668 39.701 19.46 39.8716 19.332C40.053 19.204 40.309 19.14 40.6396 19.14C41.301 19.14 41.6316 19.3747 41.6316 19.844C41.6316 19.9827 41.6103 20.116 41.5676 20.244L39.3436 27.316C38.9703 28.5107 38.5383 29.3693 38.0476 29.892C37.557 30.404 36.9383 30.66 36.1916 30.66ZM44.807 30.66C44.487 30.66 44.231 30.5747 44.039 30.404C43.847 30.2333 43.751 29.9987 43.751 29.7V20.1C43.751 19.8013 43.847 19.5667 44.039 19.396C44.231 19.2253 44.487 19.14 44.807 19.14C45.1163 19.14 45.3723 19.2253 45.575 19.396C45.7777 19.5667 45.879 19.8013 45.879 20.1V29.7C45.879 29.9987 45.7777 30.2333 45.575 30.404C45.3723 30.5747 45.1163 30.66 44.807 30.66ZM53.554 30.66C52.5087 30.66 51.5273 30.4893 50.61 30.148C49.6927 29.796 48.898 29.2947 48.226 28.644C48.066 28.484 47.986 28.3027 47.986 28.1C47.986 27.8653 48.0927 27.6413 48.306 27.428C48.4767 27.2573 48.6633 27.172 48.866 27.172C49.0793 27.172 49.3353 27.2947 49.634 27.54C50.1353 27.9987 50.7273 28.356 51.41 28.612C52.1033 28.8573 52.818 28.98 53.554 28.98C54.258 28.98 54.8073 28.8627 55.202 28.628C55.5967 28.3827 55.794 28.0413 55.794 27.604C55.794 27.1453 55.5807 26.7773 55.154 26.5C54.7273 26.212 54.002 25.956 52.978 25.732C51.3673 25.38 50.194 24.916 49.458 24.34C48.7327 23.764 48.37 23.0227 48.37 22.116C48.37 21.54 48.562 21.028 48.946 20.58C49.33 20.1213 49.8633 19.7693 50.546 19.524C51.2393 19.268 52.0287 19.14 52.914 19.14C53.906 19.14 54.786 19.3053 55.554 19.636C56.3327 19.956 56.9247 20.4093 57.33 20.996C57.4687 21.22 57.538 21.412 57.538 21.572C57.5273 21.8387 57.394 22.068 57.138 22.26C56.9993 22.356 56.8393 22.404 56.658 22.404C56.3273 22.404 56.0553 22.276 55.842 22.02C55.5327 21.6467 55.1167 21.3533 54.594 21.14C54.082 20.9267 53.522 20.82 52.914 20.82C52.1567 20.82 51.5647 20.9373 51.138 21.172C50.722 21.396 50.514 21.7107 50.514 22.116C50.514 22.5213 50.7167 22.8573 51.122 23.124C51.538 23.38 52.2527 23.6253 53.266 23.86C54.386 24.1267 55.2873 24.4307 55.97 24.772C56.6527 25.1027 57.1487 25.4973 57.458 25.956C57.778 26.4147 57.938 26.964 57.938 27.604C57.938 28.212 57.7567 28.7507 57.394 29.22C57.0313 29.6787 56.5193 30.036 55.858 30.292C55.1967 30.5373 54.4287 30.66 53.554 30.66ZM63.8176 30.66C63.4976 30.66 63.2416 30.5747 63.0496 30.404C62.8576 30.2333 62.7616 29.9987 62.7616 29.7V20.948H59.6736C59.3643 20.948 59.119 20.8787 58.9376 20.74C58.767 20.5907 58.6816 20.388 58.6816 20.132C58.6816 19.8653 58.767 19.6627 58.9376 19.524C59.1083 19.3747 59.3536 19.3 59.6736 19.3H67.9776C68.2976 19.3 68.543 19.3747 68.7136 19.524C68.8843 19.6627 68.9696 19.8653 68.9696 20.132C68.9696 20.388 68.879 20.5907 68.6976 20.74C68.527 20.8787 68.287 20.948 67.9776 20.948H64.8896V29.7C64.8896 29.988 64.7883 30.2227 64.5856 30.404C64.3936 30.5747 64.1376 30.66 63.8176 30.66ZM71.8226 30.66C71.5026 30.66 71.2466 30.5747 71.0546 30.404C70.8626 30.2333 70.7666 29.9987 70.7666 29.7V20.1C70.7666 19.8013 70.8626 19.5667 71.0546 19.396C71.2466 19.2253 71.5026 19.14 71.8226 19.14C72.132 19.14 72.388 19.2253 72.5906 19.396C72.7933 19.5667 72.8946 19.8013 72.8946 20.1V29.7C72.8946 29.9987 72.7933 30.2333 72.5906 30.404C72.388 30.5747 72.132 30.66 71.8226 30.66Z" fill="white"/>
<path d="M126.948 59.084C126.948 58.7107 127.055 58.42 127.268 58.212C127.487 58.004 127.788 57.9 128.172 57.9H129.596C130.391 57.9 130.991 58.0547 131.396 58.364C131.801 58.6733 132.004 59.1347 132.004 59.748C132.004 60.3187 131.833 60.764 131.492 61.084C131.156 61.404 130.703 61.564 130.132 61.564L131.348 62.772C131.444 62.868 131.492 62.9773 131.492 63.1C131.492 63.228 131.436 63.34 131.324 63.436C131.207 63.5267 131.092 63.572 130.98 63.572C130.825 63.572 130.684 63.5027 130.556 63.364L128.828 61.596H128.012V63.1C128.012 63.2493 127.961 63.3667 127.86 63.452C127.759 63.5373 127.631 63.58 127.476 63.58C127.316 63.58 127.188 63.5373 127.092 63.452C126.996 63.3667 126.948 63.2493 126.948 63.1V59.084ZM129.564 60.772C129.916 60.772 130.191 60.7373 130.388 60.668C130.585 60.5987 130.724 60.492 130.804 60.348C130.889 60.1987 130.932 59.9987 130.932 59.748C130.932 59.3853 130.82 59.124 130.596 58.964C130.377 58.804 130.033 58.724 129.564 58.724H128.356C128.249 58.724 128.164 58.7587 128.1 58.828C128.041 58.8973 128.012 58.9933 128.012 59.116V60.772H129.564ZM137.719 62.012C137.719 62.4493 137.535 62.8013 137.167 63.068C136.804 63.3347 136.3 63.4787 135.655 63.5V64.076C135.655 64.1667 135.623 64.2387 135.559 64.292C135.5 64.3507 135.415 64.38 135.303 64.38C135.196 64.38 135.111 64.3507 135.047 64.292C134.988 64.2387 134.959 64.1667 134.959 64.076V63.46C134.548 63.4067 134.164 63.2973 133.807 63.132C133.45 62.9667 133.135 62.7533 132.863 62.492C132.783 62.4173 132.743 62.3267 132.743 62.22C132.743 62.092 132.796 61.98 132.903 61.884C132.988 61.7987 133.082 61.756 133.183 61.756C133.3 61.756 133.428 61.8173 133.567 61.94C133.754 62.1 133.964 62.2387 134.199 62.356C134.439 62.468 134.692 62.5507 134.959 62.604V61.052C134.234 60.8707 133.714 60.6467 133.399 60.38C133.09 60.108 132.935 59.764 132.935 59.348C132.935 59.0867 133.015 58.852 133.175 58.644C133.335 58.4307 133.567 58.26 133.871 58.132C134.18 58.004 134.543 57.9293 134.959 57.908V57.172C134.959 57.0813 134.988 57.0093 135.047 56.956C135.111 56.8973 135.196 56.868 135.303 56.868C135.415 56.868 135.5 56.8973 135.559 56.956C135.623 57.0093 135.655 57.0813 135.655 57.172V57.924C136.055 57.9667 136.407 58.0653 136.711 58.22C137.02 58.3747 137.255 58.5773 137.415 58.828C137.484 58.94 137.519 59.036 137.519 59.116C137.514 59.2493 137.447 59.364 137.319 59.46C137.25 59.5133 137.17 59.54 137.079 59.54C137.004 59.54 136.93 59.5213 136.855 59.484C136.786 59.4467 136.724 59.3987 136.671 59.34C136.554 59.2013 136.407 59.084 136.231 58.988C136.06 58.8867 135.868 58.8173 135.655 58.78V60.236C136.396 60.4013 136.924 60.628 137.239 60.916C137.559 61.1987 137.719 61.564 137.719 62.012ZM134.007 59.348C134.007 59.524 134.082 59.6707 134.231 59.788C134.38 59.9 134.623 59.9987 134.959 60.084V58.748C134.655 58.7693 134.42 58.8307 134.255 58.932C134.09 59.0333 134.007 59.172 134.007 59.348ZM135.655 62.66C135.97 62.6493 136.212 62.5907 136.383 62.484C136.559 62.372 136.647 62.2147 136.647 62.012C136.647 61.82 136.572 61.6653 136.423 61.548C136.274 61.4253 136.018 61.316 135.655 61.22V62.66ZM140.198 63.58C140.038 63.58 139.91 63.5373 139.814 63.452C139.718 63.3667 139.67 63.2493 139.67 63.1V58.948L138.982 59.212C138.886 59.2493 138.793 59.268 138.702 59.268C138.515 59.268 138.382 59.188 138.302 59.028C138.265 58.9533 138.246 58.876 138.246 58.796C138.246 58.6147 138.358 58.484 138.582 58.404L140.062 57.844C140.126 57.8227 140.193 57.812 140.262 57.812C140.401 57.812 140.513 57.8573 140.598 57.948C140.689 58.0387 140.734 58.1587 140.734 58.308V63.1C140.734 63.244 140.683 63.3613 140.582 63.452C140.486 63.5373 140.358 63.58 140.198 63.58ZM144.045 63.58C143.506 63.58 143.042 63.4653 142.653 63.236C142.263 63.0067 141.965 62.676 141.757 62.244C141.554 61.812 141.453 61.2973 141.453 60.7C141.453 60.1027 141.554 59.588 141.757 59.156C141.965 58.724 142.263 58.3933 142.653 58.164C143.042 57.9347 143.506 57.82 144.045 57.82C144.583 57.82 145.047 57.9347 145.437 58.164C145.826 58.3933 146.122 58.724 146.325 59.156C146.533 59.588 146.637 60.1027 146.637 60.7C146.637 61.2973 146.533 61.812 146.325 62.244C146.122 62.676 145.826 63.0067 145.437 63.236C145.047 63.4653 144.583 63.58 144.045 63.58ZM144.045 62.74C144.525 62.74 144.898 62.5613 145.165 62.204C145.437 61.8413 145.573 61.34 145.573 60.7C145.573 60.06 145.437 59.5613 145.165 59.204C144.898 58.8413 144.525 58.66 144.045 58.66C143.565 58.66 143.189 58.8413 142.917 59.204C142.65 59.5613 142.517 60.06 142.517 60.7C142.517 61.34 142.65 61.8413 142.917 62.204C143.189 62.5613 143.565 62.74 144.045 62.74ZM149.865 63.58C149.326 63.58 148.862 63.4653 148.473 63.236C148.084 63.0067 147.785 62.676 147.577 62.244C147.374 61.812 147.273 61.2973 147.273 60.7C147.273 60.1027 147.374 59.588 147.577 59.156C147.785 58.724 148.084 58.3933 148.473 58.164C148.862 57.9347 149.326 57.82 149.865 57.82C150.404 57.82 150.868 57.9347 151.257 58.164C151.646 58.3933 151.942 58.724 152.145 59.156C152.353 59.588 152.457 60.1027 152.457 60.7C152.457 61.2973 152.353 61.812 152.145 62.244C151.942 62.676 151.646 63.0067 151.257 63.236C150.868 63.4653 150.404 63.58 149.865 63.58ZM149.865 62.74C150.345 62.74 150.718 62.5613 150.985 62.204C151.257 61.8413 151.393 61.34 151.393 60.7C151.393 60.06 151.257 59.5613 150.985 59.204C150.718 58.8413 150.345 58.66 149.865 58.66C149.385 58.66 149.009 58.8413 148.737 59.204C148.47 59.5613 148.337 60.06 148.337 60.7C148.337 61.34 148.47 61.8413 148.737 62.204C149.009 62.5613 149.385 62.74 149.865 62.74ZM153.189 64.596C153.157 64.5587 153.141 64.5133 153.141 64.46C153.141 64.3853 153.189 64.3107 153.285 64.236C153.387 64.1613 153.48 64.068 153.565 63.956C153.651 63.8493 153.709 63.7453 153.741 63.644C153.72 63.6493 153.685 63.652 153.637 63.652C153.488 63.652 153.36 63.604 153.253 63.508C153.147 63.412 153.093 63.2867 153.093 63.132C153.093 62.9347 153.155 62.7827 153.277 62.676C153.4 62.564 153.571 62.508 153.789 62.508C154.008 62.508 154.179 62.5747 154.301 62.708C154.429 62.836 154.493 63.0173 154.493 63.252C154.493 63.4653 154.416 63.6947 154.261 63.94C154.112 64.1853 153.909 64.3907 153.653 64.556C153.531 64.636 153.435 64.676 153.365 64.676C153.301 64.676 153.243 64.6493 153.189 64.596ZM157.725 63.58C157.186 63.58 156.722 63.4653 156.333 63.236C155.943 63.0067 155.645 62.676 155.437 62.244C155.234 61.812 155.133 61.2973 155.133 60.7C155.133 60.1027 155.234 59.588 155.437 59.156C155.645 58.724 155.943 58.3933 156.333 58.164C156.722 57.9347 157.186 57.82 157.725 57.82C158.263 57.82 158.727 57.9347 159.117 58.164C159.506 58.3933 159.802 58.724 160.005 59.156C160.213 59.588 160.317 60.1027 160.317 60.7C160.317 61.2973 160.213 61.812 160.005 62.244C159.802 62.676 159.506 63.0067 159.117 63.236C158.727 63.4653 158.263 63.58 157.725 63.58ZM157.725 62.74C158.205 62.74 158.578 62.5613 158.845 62.204C159.117 61.8413 159.253 61.34 159.253 60.7C159.253 60.06 159.117 59.5613 158.845 59.204C158.578 58.8413 158.205 58.66 157.725 58.66C157.245 58.66 156.869 58.8413 156.597 59.204C156.33 59.5613 156.197 60.06 156.197 60.7C156.197 61.34 156.33 61.8413 156.597 62.204C156.869 62.5613 157.245 62.74 157.725 62.74ZM163.545 63.58C163.006 63.58 162.542 63.4653 162.153 63.236C161.763 63.0067 161.465 62.676 161.257 62.244C161.054 61.812 160.953 61.2973 160.953 60.7C160.953 60.1027 161.054 59.588 161.257 59.156C161.465 58.724 161.763 58.3933 162.153 58.164C162.542 57.9347 163.006 57.82 163.545 57.82C164.083 57.82 164.547 57.9347 164.937 58.164C165.326 58.3933 165.622 58.724 165.825 59.156C166.033 59.588 166.137 60.1027 166.137 60.7C166.137 61.2973 166.033 61.812 165.825 62.244C165.622 62.676 165.326 63.0067 164.937 63.236C164.547 63.4653 164.083 63.58 163.545 63.58ZM163.545 62.74C164.025 62.74 164.398 62.5613 164.665 62.204C164.937 61.8413 165.073 61.34 165.073 60.7C165.073 60.06 164.937 59.5613 164.665 59.204C164.398 58.8413 164.025 58.66 163.545 58.66C163.065 58.66 162.689 58.8413 162.417 59.204C162.15 59.5613 162.017 60.06 162.017 60.7C162.017 61.34 162.15 61.8413 162.417 62.204C162.689 62.5613 163.065 62.74 163.545 62.74Z" fill="#D8D8D8"/>
<path d="M128.044 55.54C127.857 55.54 127.703 55.476 127.58 55.348C127.457 55.2173 127.349 55.0027 127.256 54.704L126.7 52.936C126.689 52.904 126.684 52.8707 126.684 52.836C126.684 52.7187 126.767 52.66 126.932 52.66C127.015 52.66 127.077 52.676 127.12 52.708C127.165 52.74 127.199 52.792 127.22 52.864L127.772 54.664C127.823 54.8267 127.869 54.944 127.912 55.016C127.955 55.088 127.999 55.124 128.044 55.124C128.089 55.124 128.133 55.088 128.176 55.016C128.219 54.944 128.265 54.8267 128.316 54.664L128.868 52.864C128.889 52.792 128.921 52.74 128.964 52.708C129.009 52.676 129.073 52.66 129.156 52.66C129.321 52.66 129.404 52.7187 129.404 52.836C129.404 52.8707 129.399 52.904 129.388 52.936L128.832 54.704C128.739 55.0027 128.631 55.2173 128.508 55.348C128.385 55.476 128.231 55.54 128.044 55.54ZM130.234 55.54C130.069 55.54 129.922 55.512 129.794 55.456C129.669 55.4 129.57 55.3227 129.498 55.224C129.429 55.1227 129.394 55.0067 129.394 54.876C129.394 54.6787 129.475 54.5213 129.638 54.404C129.803 54.2867 130.026 54.228 130.306 54.228C130.549 54.228 130.743 54.28 130.89 54.384V54.288C130.89 54.1627 130.851 54.0667 130.774 54C130.697 53.9333 130.585 53.9 130.438 53.9C130.219 53.9 130.031 53.9467 129.874 54.04C129.807 54.0773 129.75 54.096 129.702 54.096C129.643 54.096 129.591 54.0693 129.546 54.016C129.517 53.9787 129.502 53.94 129.502 53.9C129.502 53.8333 129.537 53.7747 129.606 53.724C129.702 53.6547 129.823 53.6 129.97 53.56C130.117 53.52 130.271 53.5 130.434 53.5C130.743 53.5 130.986 53.5707 131.162 53.712C131.341 53.8507 131.43 54.0427 131.43 54.288V55.316C131.43 55.3853 131.406 55.44 131.358 55.48C131.313 55.52 131.25 55.54 131.17 55.54C131.087 55.54 131.023 55.5213 130.978 55.484C130.933 55.4467 130.91 55.3933 130.91 55.324V55.28C130.758 55.4533 130.533 55.54 130.234 55.54ZM130.358 55.172C130.526 55.172 130.657 55.1467 130.75 55.096C130.846 55.0427 130.894 54.9693 130.894 54.876C130.894 54.788 130.846 54.7173 130.75 54.664C130.654 54.6107 130.526 54.584 130.366 54.584C130.222 54.584 130.11 54.6093 130.03 54.66C129.953 54.7107 129.914 54.7827 129.914 54.876C129.914 54.9693 129.953 55.0427 130.03 55.096C130.107 55.1467 130.217 55.172 130.358 55.172ZM132.118 55.54C132.035 55.54 131.971 55.5187 131.926 55.476C131.88 55.4333 131.858 55.3747 131.858 55.3V52.704C131.858 52.6293 131.88 52.5707 131.926 52.528C131.971 52.4853 132.035 52.464 132.118 52.464C132.198 52.464 132.262 52.4853 132.31 52.528C132.358 52.5707 132.382 52.6293 132.382 52.704V55.3C132.382 55.3747 132.358 55.4333 132.31 55.476C132.262 55.5187 132.198 55.54 132.118 55.54ZM133.981 55.54C133.749 55.54 133.542 55.4987 133.361 55.416C133.182 55.3307 133.042 55.2107 132.941 55.056C132.839 54.9013 132.789 54.7227 132.789 54.52C132.789 54.3173 132.839 54.1387 132.941 53.984C133.042 53.8293 133.182 53.7107 133.361 53.628C133.542 53.5427 133.749 53.5 133.981 53.5C134.213 53.5 134.418 53.5427 134.597 53.628C134.778 53.7107 134.919 53.8293 135.021 53.984C135.122 54.1387 135.173 54.3173 135.173 54.52C135.173 54.7227 135.122 54.9013 135.021 55.056C134.919 55.2107 134.778 55.3307 134.597 55.416C134.418 55.4987 134.213 55.54 133.981 55.54ZM133.981 55.124C134.186 55.124 134.347 55.0707 134.465 54.964C134.585 54.8573 134.645 54.7093 134.645 54.52C134.645 54.3307 134.585 54.1827 134.465 54.076C134.347 53.9693 134.186 53.916 133.981 53.916C133.775 53.916 133.613 53.9693 133.493 54.076C133.375 54.1827 133.317 54.3307 133.317 54.52C133.317 54.7093 133.375 54.8573 133.493 54.964C133.613 55.0707 133.775 55.124 133.981 55.124ZM135.76 55.54C135.678 55.54 135.614 55.5187 135.568 55.476C135.523 55.4333 135.5 55.3747 135.5 55.3V53.74C135.5 53.6627 135.522 53.604 135.564 53.564C135.61 53.5213 135.672 53.5 135.752 53.5C135.832 53.5 135.895 53.5213 135.94 53.564C135.986 53.6067 136.008 53.6653 136.008 53.74V53.872C136.091 53.7653 136.187 53.684 136.296 53.628C136.408 53.5693 136.528 53.54 136.656 53.54H136.744C136.83 53.54 136.895 53.5587 136.94 53.596C136.988 53.6307 137.012 53.6813 137.012 53.748C137.012 53.8147 136.988 53.8667 136.94 53.904C136.895 53.9387 136.83 53.956 136.744 53.956H136.608C136.43 53.956 136.287 54.0133 136.18 54.128C136.076 54.24 136.024 54.3947 136.024 54.592V55.3C136.024 55.3747 136 55.4333 135.952 55.476C135.904 55.5187 135.84 55.54 135.76 55.54ZM139.132 55.54C138.967 55.54 138.82 55.512 138.692 55.456C138.567 55.4 138.468 55.3227 138.396 55.224C138.327 55.1227 138.292 55.0067 138.292 54.876C138.292 54.6787 138.374 54.5213 138.536 54.404C138.702 54.2867 138.924 54.228 139.204 54.228C139.447 54.228 139.642 54.28 139.788 54.384V54.288C139.788 54.1627 139.75 54.0667 139.672 54C139.595 53.9333 139.483 53.9 139.336 53.9C139.118 53.9 138.93 53.9467 138.772 54.04C138.706 54.0773 138.648 54.096 138.6 54.096C138.542 54.096 138.49 54.0693 138.444 54.016C138.415 53.9787 138.4 53.94 138.4 53.9C138.4 53.8333 138.435 53.7747 138.504 53.724C138.6 53.6547 138.722 53.6 138.868 53.56C139.015 53.52 139.17 53.5 139.332 53.5C139.642 53.5 139.884 53.5707 140.06 53.712C140.239 53.8507 140.328 54.0427 140.328 54.288V55.316C140.328 55.3853 140.304 55.44 140.256 55.48C140.211 55.52 140.148 55.54 140.068 55.54C139.986 55.54 139.922 55.5213 139.876 55.484C139.831 55.4467 139.808 55.3933 139.808 55.324V55.28C139.656 55.4533 139.431 55.54 139.132 55.54ZM139.256 55.172C139.424 55.172 139.555 55.1467 139.648 55.096C139.744 55.0427 139.792 54.9693 139.792 54.876C139.792 54.788 139.744 54.7173 139.648 54.664C139.552 54.6107 139.424 54.584 139.264 54.584C139.12 54.584 139.008 54.6093 138.928 54.66C138.851 54.7107 138.812 54.7827 138.812 54.876C138.812 54.9693 138.851 55.0427 138.928 55.096C139.006 55.1467 139.115 55.172 139.256 55.172ZM142.207 54.984C142.249 55.0187 142.271 55.0613 142.271 55.112C142.271 55.1627 142.252 55.2147 142.215 55.268C142.156 55.3533 142.073 55.42 141.967 55.468C141.86 55.516 141.74 55.54 141.607 55.54C141.393 55.54 141.225 55.4827 141.103 55.368C140.983 55.2507 140.923 55.0907 140.923 54.888V53.952H140.759C140.679 53.952 140.615 53.9333 140.567 53.896C140.519 53.8587 140.495 53.8093 140.495 53.748C140.495 53.684 140.517 53.6333 140.563 53.596C140.611 53.5587 140.676 53.54 140.759 53.54H140.923V52.936C140.923 52.8613 140.947 52.8027 140.995 52.76C141.043 52.7173 141.107 52.696 141.187 52.696C141.269 52.696 141.333 52.7173 141.379 52.76C141.424 52.8027 141.447 52.8613 141.447 52.936V53.54H141.831C141.913 53.54 141.977 53.5587 142.023 53.596C142.071 53.6333 142.095 53.684 142.095 53.748C142.095 53.8093 142.071 53.8587 142.023 53.896C141.977 53.9333 141.913 53.952 141.831 53.952H141.447V54.932C141.447 54.9907 141.464 55.0373 141.499 55.072C141.536 55.1067 141.585 55.124 141.647 55.124C141.695 55.124 141.736 55.1173 141.771 55.104C141.808 55.088 141.845 55.0627 141.883 55.028C141.952 54.9613 142.016 54.928 142.075 54.928C142.117 54.928 142.161 54.9467 142.207 54.984ZM143.411 55.54C143.136 55.54 142.922 55.4613 142.767 55.304C142.615 55.144 142.539 54.9227 142.539 54.64V53.74C142.539 53.6653 142.563 53.6067 142.611 53.564C142.659 53.5213 142.723 53.5 142.803 53.5C142.886 53.5 142.95 53.5213 142.995 53.564C143.04 53.6067 143.063 53.6653 143.063 53.74V54.64C143.063 54.792 143.103 54.9107 143.183 54.996C143.266 55.0813 143.38 55.124 143.527 55.124C143.716 55.124 143.863 55.064 143.967 54.944C144.074 54.824 144.127 54.6587 144.127 54.448V53.74C144.127 53.6653 144.151 53.6067 144.199 53.564C144.247 53.5213 144.311 53.5 144.391 53.5C144.474 53.5 144.538 53.5213 144.583 53.564C144.628 53.6067 144.651 53.6653 144.651 53.74V55.3C144.651 55.3773 144.628 55.4373 144.583 55.48C144.54 55.52 144.479 55.54 144.399 55.54C144.319 55.54 144.256 55.5187 144.211 55.476C144.166 55.4333 144.143 55.3747 144.143 55.3V55.184C144.044 55.3067 143.935 55.3973 143.815 55.456C143.698 55.512 143.563 55.54 143.411 55.54ZM145.82 55.54C145.655 55.54 145.508 55.512 145.38 55.456C145.255 55.4 145.156 55.3227 145.084 55.224C145.015 55.1227 144.98 55.0067 144.98 54.876C144.98 54.6787 145.061 54.5213 145.224 54.404C145.389 54.2867 145.612 54.228 145.892 54.228C146.135 54.228 146.329 54.28 146.476 54.384V54.288C146.476 54.1627 146.437 54.0667 146.36 54C146.283 53.9333 146.171 53.9 146.024 53.9C145.805 53.9 145.617 53.9467 145.46 54.04C145.393 54.0773 145.336 54.096 145.288 54.096C145.229 54.096 145.177 54.0693 145.132 54.016C145.103 53.9787 145.088 53.94 145.088 53.9C145.088 53.8333 145.123 53.7747 145.192 53.724C145.288 53.6547 145.409 53.6 145.556 53.56C145.703 53.52 145.857 53.5 146.02 53.5C146.329 53.5 146.572 53.5707 146.748 53.712C146.927 53.8507 147.016 54.0427 147.016 54.288V55.316C147.016 55.3853 146.992 55.44 146.944 55.48C146.899 55.52 146.836 55.54 146.756 55.54C146.673 55.54 146.609 55.5213 146.564 55.484C146.519 55.4467 146.496 55.3933 146.496 55.324V55.28C146.344 55.4533 146.119 55.54 145.82 55.54ZM145.944 55.172C146.112 55.172 146.243 55.1467 146.336 55.096C146.432 55.0427 146.48 54.9693 146.48 54.876C146.48 54.788 146.432 54.7173 146.336 54.664C146.24 54.6107 146.112 54.584 145.952 54.584C145.808 54.584 145.696 54.6093 145.616 54.66C145.539 54.7107 145.5 54.7827 145.5 54.876C145.5 54.9693 145.539 55.0427 145.616 55.096C145.693 55.1467 145.803 55.172 145.944 55.172ZM147.704 55.54C147.621 55.54 147.557 55.5187 147.512 55.476C147.466 55.4333 147.444 55.3747 147.444 55.3V52.704C147.444 52.6293 147.466 52.5707 147.512 52.528C147.557 52.4853 147.621 52.464 147.704 52.464C147.784 52.464 147.848 52.4853 147.896 52.528C147.944 52.5707 147.968 52.6293 147.968 52.704V55.3C147.968 55.3747 147.944 55.4333 147.896 55.476C147.848 55.5187 147.784 55.54 147.704 55.54Z" fill="#CACACA"/>
<path d="M168.95 61.7412C169.806 62.4783 171.3 63.5 173 63.5C174.7 63.5 176.194 62.4783 177.05 61.7412C177.276 61.5468 177.39 61.4493 177.461 61.2584C177.513 61.1222 177.513 60.8778 177.461 60.7416C177.39 60.5508 177.276 60.4532 177.05 60.2588C176.194 59.5217 174.7 58.5 173 58.5C171.3 58.5 169.806 59.5217 168.95 60.2588C168.724 60.4533 168.61 60.5507 168.538 60.7416C168.487 60.8778 168.487 61.1222 168.538 61.2584C168.61 61.4494 168.724 61.5467 168.95 61.7412Z" stroke="#D8D8D8" stroke-linecap="round" stroke-linejoin="round"/>
<path d="M172.037 61C172.037 61.4602 172.468 61.8333 173 61.8333C173.532 61.8333 173.963 61.4602 173.963 61C173.963 60.5397 173.532 60.1666 173 60.1666C172.468 60.1666 172.037 60.5397 172.037 61Z" stroke="#D8D8D8" stroke-linecap="round" stroke-linejoin="round"/>
<path d="M167 24.0625C168.553 24.0625 169.812 22.8033 169.812 21.25C169.812 19.6967 168.553 18.4375 167 18.4375C165.447 18.4375 164.188 19.6967 164.188 21.25C164.188 22.8033 165.447 24.0625 167 24.0625Z" fill="#D8D8D8"/>
<path d="M172.625 28.75C172.625 27.1967 171.366 25.9375 169.812 25.9375H164.188C162.634 25.9375 161.375 27.1967 161.375 28.75V31.5625H172.625V28.75Z" fill="#D8D8D8"/>
<rect x="145.5" y="332.5" width="28" height="28" rx="4" fill="#8332AC"/>
<path d="M159.5 352.333V340.667" stroke="white" stroke-width="2" stroke-linecap="round" stroke-linejoin="round"/>
<path d="M153.667 346.5H165.333" stroke="white" stroke-width="2" stroke-linecap="round" stroke-linejoin="round"/>
<g filter="url(#filter0_d_6_45)">
<rect x="13.5" y="95.5" width="79" height="23" rx="4" fill="white" shape-rendering="crispEdges"/>
<g filter="url(#filter1_b_6_45)">
<rect x="13.5" y="95.5" width="23" height="23" rx="4" fill="#29BF12"/>
<path fill-rule="evenodd" clip-rule="evenodd" d="M25 101.375C25.1658 101.375 25.3247 101.441 25.4419 101.558L29.8169 105.933C30.061 106.177 30.061 106.573 29.8169 106.817C29.5729 107.061 29.1771 107.061 28.9331 106.817L25.625 103.509V112C25.625 112.345 25.3452 112.625 25 112.625C24.6548 112.625 24.375 112.345 24.375 112V103.509L21.0669 106.817C20.8229 107.061 20.4271 107.061 20.1831 106.817C19.939 106.573 19.939 106.177 20.1831 105.933L24.5581 101.558C24.6753 101.441 24.8342 101.375 25 101.375Z" fill="white"/>
</g>
<path d="M45.944 103.54C45.8613 103.54 45.7973 103.519 45.752 103.476C45.7067 103.433 45.684 103.375 45.684 103.3V101.74C45.684 101.663 45.7053 101.604 45.748 101.564C45.7933 101.521 45.856 101.5 45.936 101.5C46.016 101.5 46.0787 101.521 46.124 101.564C46.1693 101.607 46.192 101.665 46.192 101.74V101.872C46.2747 101.765 46.3707 101.684 46.48 101.628C46.592 101.569 46.712 101.54 46.84 101.54H46.928C47.0133 101.54 47.0787 101.559 47.124 101.596C47.172 101.631 47.196 101.681 47.196 101.748C47.196 101.815 47.172 101.867 47.124 101.904C47.0787 101.939 47.0133 101.956 46.928 101.956H46.792C46.6133 101.956 46.4707 102.013 46.364 102.128C46.26 102.24 46.208 102.395 46.208 102.592V103.3C46.208 103.375 46.184 103.433 46.136 103.476C46.088 103.519 46.024 103.54 45.944 103.54ZM48.358 103.54C48.1287 103.54 47.9287 103.499 47.758 103.416C47.5874 103.333 47.4554 103.217 47.362 103.068C47.2714 102.916 47.226 102.739 47.226 102.536C47.226 102.208 47.3207 101.953 47.51 101.772C47.702 101.591 47.9714 101.5 48.318 101.5C48.5314 101.5 48.7194 101.533 48.882 101.6C49.0474 101.667 49.1754 101.76 49.266 101.88C49.3594 101.997 49.406 102.132 49.406 102.284C49.406 102.412 49.3647 102.511 49.282 102.58C49.202 102.649 49.0874 102.684 48.938 102.684H47.734C47.734 102.833 47.786 102.947 47.89 103.024C47.9967 103.099 48.1527 103.136 48.358 103.136C48.574 103.136 48.758 103.088 48.91 102.992C48.9954 102.939 49.062 102.912 49.11 102.912C49.1554 102.912 49.1994 102.933 49.242 102.976C49.2874 103.021 49.31 103.071 49.31 103.124C49.31 103.188 49.2834 103.239 49.23 103.276C49.118 103.361 48.9874 103.427 48.838 103.472C48.6887 103.517 48.5287 103.54 48.358 103.54ZM48.778 102.316C48.8234 102.316 48.8554 102.308 48.874 102.292C48.8927 102.273 48.902 102.244 48.902 102.204C48.902 102.111 48.8487 102.037 48.742 101.984C48.638 101.931 48.4967 101.904 48.318 101.904C48.1394 101.904 47.998 101.941 47.894 102.016C47.7927 102.091 47.742 102.191 47.742 102.316H48.778ZM50.8228 103.54C50.4654 103.54 50.1881 103.451 49.9908 103.272C49.7934 103.091 49.6948 102.839 49.6948 102.516C49.6948 102.193 49.7934 101.944 49.9908 101.768C50.1881 101.589 50.4654 101.5 50.8228 101.5C51.0121 101.5 51.1828 101.532 51.3348 101.596C51.4894 101.657 51.6108 101.745 51.6988 101.86C51.7308 101.9 51.7468 101.943 51.7468 101.988C51.7468 102.057 51.7108 102.119 51.6388 102.172C51.6068 102.196 51.5668 102.208 51.5188 102.208C51.4814 102.208 51.4428 102.2 51.4028 102.184C51.3628 102.165 51.3281 102.14 51.2988 102.108C51.2454 102.047 51.1761 102 51.0908 101.968C51.0081 101.933 50.9188 101.916 50.8228 101.916C50.6334 101.916 50.4854 101.969 50.3788 102.076C50.2748 102.18 50.2228 102.327 50.2228 102.516C50.2228 102.711 50.2748 102.861 50.3788 102.968C50.4854 103.072 50.6334 103.124 50.8228 103.124C51.0334 103.124 51.2134 103.053 51.3628 102.912C51.4374 102.837 51.5108 102.8 51.5828 102.8C51.6308 102.8 51.6748 102.816 51.7148 102.848C51.7788 102.899 51.8108 102.96 51.8108 103.032C51.8108 103.077 51.7921 103.121 51.7548 103.164C51.6321 103.295 51.4948 103.391 51.3428 103.452C51.1934 103.511 51.0201 103.54 50.8228 103.54ZM53.2291 103.54C52.9998 103.54 52.7998 103.499 52.6291 103.416C52.4585 103.333 52.3265 103.217 52.2331 103.068C52.1425 102.916 52.0971 102.739 52.0971 102.536C52.0971 102.208 52.1918 101.953 52.3811 101.772C52.5731 101.591 52.8425 101.5 53.1891 101.5C53.4025 101.5 53.5905 101.533 53.7531 101.6C53.9185 101.667 54.0465 101.76 54.1371 101.88C54.2305 101.997 54.2771 102.132 54.2771 102.284C54.2771 102.412 54.2358 102.511 54.1531 102.58C54.0731 102.649 53.9585 102.684 53.8091 102.684H52.6051C52.6051 102.833 52.6571 102.947 52.7611 103.024C52.8678 103.099 53.0238 103.136 53.2291 103.136C53.4451 103.136 53.6291 103.088 53.7811 102.992C53.8665 102.939 53.9331 102.912 53.9811 102.912C54.0265 102.912 54.0705 102.933 54.1131 102.976C54.1585 103.021 54.1811 103.071 54.1811 103.124C54.1811 103.188 54.1545 103.239 54.1011 103.276C53.9891 103.361 53.8585 103.427 53.7091 103.472C53.5598 103.517 53.3998 103.54 53.2291 103.54ZM53.6491 102.316C53.6945 102.316 53.7265 102.308 53.7451 102.292C53.7638 102.273 53.7731 102.244 53.7731 102.204C53.7731 102.111 53.7198 102.037 53.6131 101.984C53.5091 101.931 53.3678 101.904 53.1891 101.904C53.0105 101.904 52.8691 101.941 52.7651 102.016C52.6638 102.091 52.6131 102.191 52.6131 102.316H53.6491ZM54.9339 101.252C54.8352 101.252 54.7552 101.225 54.6939 101.172C54.6352 101.116 54.6059 101.044 54.6059 100.956C54.6059 100.868 54.6352 100.797 54.6939 100.744C54.7552 100.688 54.8352 100.66 54.9339 100.66C55.0325 100.66 55.1125 100.688 55.1739 100.744C55.2379 100.797 55.2699 100.868 55.2699 100.956C55.2699 101.044 55.2379 101.116 55.1739 101.172C55.1125 101.225 55.0325 101.252 54.9339 101.252ZM54.9379 103.54C54.8552 103.54 54.7912 103.519 54.7459 103.476C54.7005 103.433 54.6779 103.375 54.6779 103.3V101.74C54.6779 101.665 54.7005 101.607 54.7459 101.564C54.7912 101.521 54.8552 101.5 54.9379 101.5C55.0179 101.5 55.0819 101.521 55.1299 101.564C55.1779 101.607 55.2019 101.665 55.2019 101.74V103.3C55.2019 103.375 55.1779 103.433 55.1299 103.476C55.0819 103.519 55.0179 103.54 54.9379 103.54ZM57.2691 102.984C57.3118 103.019 57.3331 103.061 57.3331 103.112C57.3331 103.163 57.3145 103.215 57.2771 103.268C57.2185 103.353 57.1358 103.42 57.0291 103.468C56.9225 103.516 56.8025 103.54 56.6691 103.54C56.4558 103.54 56.2878 103.483 56.1651 103.368C56.0451 103.251 55.9851 103.091 55.9851 102.888V101.952H55.8211C55.7411 101.952 55.6771 101.933 55.6291 101.896C55.5811 101.859 55.5571 101.809 55.5571 101.748C55.5571 101.684 55.5798 101.633 55.6251 101.596C55.6731 101.559 55.7385 101.54 55.8211 101.54H55.9851V100.936C55.9851 100.861 56.0091 100.803 56.0571 100.76C56.1051 100.717 56.1691 100.696 56.2491 100.696C56.3318 100.696 56.3958 100.717 56.4411 100.76C56.4865 100.803 56.5091 100.861 56.5091 100.936V101.54H56.8931C56.9758 101.54 57.0398 101.559 57.0851 101.596C57.1331 101.633 57.1571 101.684 57.1571 101.748C57.1571 101.809 57.1331 101.859 57.0851 101.896C57.0398 101.933 56.9758 101.952 56.8931 101.952H56.5091V102.932C56.5091 102.991 56.5265 103.037 56.5611 103.072C56.5985 103.107 56.6478 103.124 56.7091 103.124C56.7571 103.124 56.7985 103.117 56.8331 103.104C56.8705 103.088 56.9078 103.063 56.9451 103.028C57.0145 102.961 57.0785 102.928 57.1371 102.928C57.1798 102.928 57.2238 102.947 57.2691 102.984ZM58.4215 103.54C58.2562 103.54 58.1095 103.512 57.9815 103.456C57.8562 103.4 57.7575 103.323 57.6855 103.224C57.6162 103.123 57.5815 103.007 57.5815 102.876C57.5815 102.679 57.6628 102.521 57.8255 102.404C57.9908 102.287 58.2135 102.228 58.4935 102.228C58.7362 102.228 58.9308 102.28 59.0775 102.384V102.288C59.0775 102.163 59.0388 102.067 58.9615 102C58.8842 101.933 58.7722 101.9 58.6255 101.9C58.4068 101.9 58.2188 101.947 58.0615 102.04C57.9948 102.077 57.9375 102.096 57.8895 102.096C57.8308 102.096 57.7788 102.069 57.7335 102.016C57.7042 101.979 57.6895 101.94 57.6895 101.9C57.6895 101.833 57.7242 101.775 57.7935 101.724C57.8895 101.655 58.0108 101.6 58.1575 101.56C58.3042 101.52 58.4588 101.5 58.6215 101.5C58.9308 101.5 59.1735 101.571 59.3495 101.712C59.5282 101.851 59.6175 102.043 59.6175 102.288V103.316C59.6175 103.385 59.5935 103.44 59.5455 103.48C59.5002 103.52 59.4375 103.54 59.3575 103.54C59.2748 103.54 59.2108 103.521 59.1655 103.484C59.1202 103.447 59.0975 103.393 59.0975 103.324V103.28C58.9455 103.453 58.7202 103.54 58.4215 103.54ZM58.5455 103.172C58.7135 103.172 58.8442 103.147 58.9375 103.096C59.0335 103.043 59.0815 102.969 59.0815 102.876C59.0815 102.788 59.0335 102.717 58.9375 102.664C58.8415 102.611 58.7135 102.584 58.5535 102.584C58.4095 102.584 58.2975 102.609 58.2175 102.66C58.1402 102.711 58.1015 102.783 58.1015 102.876C58.1015 102.969 58.1402 103.043 58.2175 103.096C58.2948 103.147 58.4042 103.172 58.5455 103.172Z" fill="#707070"/>
<path d="M45.948 108.084C45.948 107.711 46.0547 107.42 46.268 107.212C46.4867 107.004 46.788 106.9 47.172 106.9H48.596C49.3907 106.9 49.9907 107.055 50.396 107.364C50.8013 107.673 51.004 108.135 51.004 108.748C51.004 109.319 50.8333 109.764 50.492 110.084C50.156 110.404 49.7027 110.564 49.132 110.564L50.348 111.772C50.444 111.868 50.492 111.977 50.492 112.1C50.492 112.228 50.436 112.34 50.324 112.436C50.2067 112.527 50.092 112.572 49.98 112.572C49.8253 112.572 49.684 112.503 49.556 112.364L47.828 110.596H47.012V112.1C47.012 112.249 46.9613 112.367 46.86 112.452C46.7587 112.537 46.6307 112.58 46.476 112.58C46.316 112.58 46.188 112.537 46.092 112.452C45.996 112.367 45.948 112.249 45.948 112.1V108.084ZM48.564 109.772C48.916 109.772 49.1907 109.737 49.388 109.668C49.5853 109.599 49.724 109.492 49.804 109.348C49.8893 109.199 49.932 108.999 49.932 108.748C49.932 108.385 49.82 108.124 49.596 107.964C49.3773 107.804 49.0333 107.724 48.564 107.724H47.356C47.2493 107.724 47.164 107.759 47.1 107.828C47.0413 107.897 47.012 107.993 47.012 108.116V109.772H48.564ZM56.719 111.012C56.719 111.449 56.535 111.801 56.167 112.068C55.8043 112.335 55.3003 112.479 54.655 112.5V113.076C54.655 113.167 54.623 113.239 54.559 113.292C54.5003 113.351 54.415 113.38 54.303 113.38C54.1963 113.38 54.111 113.351 54.047 113.292C53.9883 113.239 53.959 113.167 53.959 113.076V112.46C53.5483 112.407 53.1643 112.297 52.807 112.132C52.4497 111.967 52.135 111.753 51.863 111.492C51.783 111.417 51.743 111.327 51.743 111.22C51.743 111.092 51.7963 110.98 51.903 110.884C51.9883 110.799 52.0817 110.756 52.183 110.756C52.3003 110.756 52.4283 110.817 52.567 110.94C52.7537 111.1 52.9643 111.239 53.199 111.356C53.439 111.468 53.6923 111.551 53.959 111.604V110.052C53.2337 109.871 52.7137 109.647 52.399 109.38C52.0897 109.108 51.935 108.764 51.935 108.348C51.935 108.087 52.015 107.852 52.175 107.644C52.335 107.431 52.567 107.26 52.871 107.132C53.1803 107.004 53.543 106.929 53.959 106.908V106.172C53.959 106.081 53.9883 106.009 54.047 105.956C54.111 105.897 54.1963 105.868 54.303 105.868C54.415 105.868 54.5003 105.897 54.559 105.956C54.623 106.009 54.655 106.081 54.655 106.172V106.924C55.055 106.967 55.407 107.065 55.711 107.22C56.0203 107.375 56.255 107.577 56.415 107.828C56.4843 107.94 56.519 108.036 56.519 108.116C56.5137 108.249 56.447 108.364 56.319 108.46C56.2497 108.513 56.1697 108.54 56.079 108.54C56.0043 108.54 55.9297 108.521 55.855 108.484C55.7857 108.447 55.7243 108.399 55.671 108.34C55.5537 108.201 55.407 108.084 55.231 107.988C55.0603 107.887 54.8683 107.817 54.655 107.78V109.236C55.3963 109.401 55.9243 109.628 56.239 109.916C56.559 110.199 56.719 110.564 56.719 111.012ZM53.007 108.348C53.007 108.524 53.0817 108.671 53.231 108.788C53.3803 108.9 53.623 108.999 53.959 109.084V107.748C53.655 107.769 53.4203 107.831 53.255 107.932C53.0897 108.033 53.007 108.172 53.007 108.348ZM54.655 111.66C54.9697 111.649 55.2123 111.591 55.383 111.484C55.559 111.372 55.647 111.215 55.647 111.012C55.647 110.82 55.5723 110.665 55.423 110.548C55.2737 110.425 55.0177 110.316 54.655 110.22V111.66ZM59.1979 112.58C59.0379 112.58 58.9099 112.537 58.8139 112.452C58.7179 112.367 58.6699 112.249 58.6699 112.1V107.948L57.9819 108.212C57.8859 108.249 57.7926 108.268 57.7019 108.268C57.5153 108.268 57.3819 108.188 57.3019 108.028C57.2646 107.953 57.2459 107.876 57.2459 107.796C57.2459 107.615 57.3579 107.484 57.5819 107.404L59.0619 106.844C59.1259 106.823 59.1926 106.812 59.2619 106.812C59.4006 106.812 59.5126 106.857 59.5979 106.948C59.6886 107.039 59.7339 107.159 59.7339 107.308V112.1C59.7339 112.244 59.6833 112.361 59.5819 112.452C59.4859 112.537 59.3579 112.58 59.1979 112.58ZM63.0448 112.58C62.5061 112.58 62.0421 112.465 61.6528 112.236C61.2635 112.007 60.9648 111.676 60.7568 111.244C60.5541 110.812 60.4528 110.297 60.4528 109.7C60.4528 109.103 60.5541 108.588 60.7568 108.156C60.9648 107.724 61.2635 107.393 61.6528 107.164C62.0421 106.935 62.5061 106.82 63.0448 106.82C63.5835 106.82 64.0475 106.935 64.4368 107.164C64.8261 107.393 65.1221 107.724 65.3248 108.156C65.5328 108.588 65.6368 109.103 65.6368 109.7C65.6368 110.297 65.5328 110.812 65.3248 111.244C65.1221 111.676 64.8261 112.007 64.4368 112.236C64.0475 112.465 63.5835 112.58 63.0448 112.58ZM63.0448 111.74C63.5248 111.74 63.8981 111.561 64.1648 111.204C64.4368 110.841 64.5728 110.34 64.5728 109.7C64.5728 109.06 64.4368 108.561 64.1648 108.204C63.8981 107.841 63.5248 107.66 63.0448 107.66C62.5648 107.66 62.1888 107.841 61.9168 108.204C61.6501 108.561 61.5168 109.06 61.5168 109.7C61.5168 110.34 61.6501 110.841 61.9168 111.204C62.1888 111.561 62.5648 111.74 63.0448 111.74ZM68.8651 112.58C68.3265 112.58 67.8625 112.465 67.4731 112.236C67.0838 112.007 66.7851 111.676 66.5771 111.244C66.3745 110.812 66.2731 110.297 66.2731 109.7C66.2731 109.103 66.3745 108.588 66.5771 108.156C66.7851 107.724 67.0838 107.393 67.4731 107.164C67.8625 106.935 68.3265 106.82 68.8651 106.82C69.4038 106.82 69.8678 106.935 70.2571 107.164C70.6465 107.393 70.9425 107.724 71.1451 108.156C71.3531 108.588 71.4571 109.103 71.4571 109.7C71.4571 110.297 71.3531 110.812 71.1451 111.244C70.9425 111.676 70.6465 112.007 70.2571 112.236C69.8678 112.465 69.4038 112.58 68.8651 112.58ZM68.8651 111.74C69.3451 111.74 69.7185 111.561 69.9851 111.204C70.2571 110.841 70.3931 110.34 70.3931 109.7C70.3931 109.06 70.2571 108.561 69.9851 108.204C69.7185 107.841 69.3451 107.66 68.8651 107.66C68.3851 107.66 68.0091 107.841 67.7371 108.204C67.4705 108.561 67.3371 109.06 67.3371 109.7C67.3371 110.34 67.4705 110.841 67.7371 111.204C68.0091 111.561 68.3851 111.74 68.8651 111.74ZM72.1894 113.596C72.1574 113.559 72.1414 113.513 72.1414 113.46C72.1414 113.385 72.1894 113.311 72.2854 113.236C72.3868 113.161 72.4801 113.068 72.5654 112.956C72.6508 112.849 72.7094 112.745 72.7414 112.644C72.7201 112.649 72.6854 112.652 72.6374 112.652C72.4881 112.652 72.3601 112.604 72.2534 112.508C72.1468 112.412 72.0934 112.287 72.0934 112.132C72.0934 111.935 72.1548 111.783 72.2774 111.676C72.4001 111.564 72.5708 111.508 72.7894 111.508C73.0081 111.508 73.1788 111.575 73.3014 111.708C73.4294 111.836 73.4934 112.017 73.4934 112.252C73.4934 112.465 73.4161 112.695 73.2614 112.94C73.1121 113.185 72.9094 113.391 72.6534 113.556C72.5308 113.636 72.4348 113.676 72.3654 113.676C72.3014 113.676 72.2428 113.649 72.1894 113.596ZM76.7245 112.58C76.1858 112.58 75.7218 112.465 75.3325 112.236C74.9432 112.007 74.6445 111.676 74.4365 111.244C74.2338 110.812 74.1325 110.297 74.1325 109.7C74.1325 109.103 74.2338 108.588 74.4365 108.156C74.6445 107.724 74.9432 107.393 75.3325 107.164C75.7218 106.935 76.1858 106.82 76.7245 106.82C77.2632 106.82 77.7272 106.935 78.1165 107.164C78.5058 107.393 78.8018 107.724 79.0045 108.156C79.2125 108.588 79.3165 109.103 79.3165 109.7C79.3165 110.297 79.2125 110.812 79.0045 111.244C78.8018 111.676 78.5058 112.007 78.1165 112.236C77.7272 112.465 77.2632 112.58 76.7245 112.58ZM76.7245 111.74C77.2045 111.74 77.5778 111.561 77.8445 111.204C78.1165 110.841 78.2525 110.34 78.2525 109.7C78.2525 109.06 78.1165 108.561 77.8445 108.204C77.5778 107.841 77.2045 107.66 76.7245 107.66C76.2445 107.66 75.8685 107.841 75.5965 108.204C75.3298 108.561 75.1965 109.06 75.1965 109.7C75.1965 110.34 75.3298 110.841 75.5965 111.204C75.8685 111.561 76.2445 111.74 76.7245 111.74ZM82.5448 112.58C82.0061 112.58 81.5421 112.465 81.1528 112.236C80.7635 112.007 80.4648 111.676 80.2568 111.244C80.0541 110.812 79.9528 110.297 79.9528 109.7C79.9528 109.103 80.0541 108.588 80.2568 108.156C80.4648 107.724 80.7635 107.393 81.1528 107.164C81.5421 106.935 82.0061 106.82 82.5448 106.82C83.0835 106.82 83.5475 106.935 83.9368 107.164C84.3261 107.393 84.6221 107.724 84.8248 108.156C85.0328 108.588 85.1368 109.103 85.1368 109.7C85.1368 110.297 85.0328 110.812 84.8248 111.244C84.6221 111.676 84.3261 112.007 83.9368 112.236C83.5475 112.465 83.0835 112.58 82.5448 112.58ZM82.5448 111.74C83.0248 111.74 83.3981 111.561 83.6648 111.204C83.9368 110.841 84.0728 110.34 84.0728 109.7C84.0728 109.06 83.9368 108.561 83.6648 108.204C83.3981 107.841 83.0248 107.66 82.5448 107.66C82.0648 107.66 81.6888 107.841 81.4168 108.204C81.1501 108.561 81.0168 109.06 81.0168 109.7C81.0168 110.34 81.1501 110.841 81.4168 111.204C81.6888 111.561 82.0648 111.74 82.5448 111.74Z" fill="#444444"/>
</g>
<g filter="url(#filter2_d_6_45)">
<rect x="100.5" y="95.5" width="79" height="23" rx="4" fill="white" shape-rendering="crispEdges"/>
<g filter="url(#filter3_b_6_45)">
<rect x="100.5" y="95.5" width="23" height="23" rx="4" fill="#F21B3F"/>
<path fill-rule="evenodd" clip-rule="evenodd" d="M112 112.625C111.834 112.625 111.675 112.559 111.558 112.442L107.183 108.067C106.939 107.823 106.939 107.427 107.183 107.183C107.427 106.939 107.823 106.939 108.067 107.183L111.375 110.491V102C111.375 101.655 111.655 101.375 112 101.375C112.345 101.375 112.625 101.655 112.625 102V110.491L115.933 107.183C116.177 106.939 116.573 106.939 116.817 107.183C117.061 107.427 117.061 107.823 116.817 108.067L112.442 112.442C112.325 112.559 112.166 112.625 112 112.625Z" fill="white"/>
</g>
<path d="M133.712 103.54C133.504 103.54 133.319 103.5 133.156 103.42C132.996 103.337 132.871 103.219 132.78 103.064C132.689 102.909 132.644 102.728 132.644 102.52C132.644 102.312 132.687 102.132 132.772 101.98C132.86 101.825 132.985 101.707 133.148 101.624C133.311 101.541 133.503 101.5 133.724 101.5C133.887 101.5 134.024 101.527 134.136 101.58C134.248 101.631 134.353 101.708 134.452 101.812L134.456 100.704C134.456 100.629 134.48 100.571 134.528 100.528C134.576 100.485 134.64 100.464 134.72 100.464C134.8 100.464 134.863 100.485 134.908 100.528C134.956 100.568 134.98 100.627 134.98 100.704V103.3C134.98 103.377 134.956 103.437 134.908 103.48C134.863 103.52 134.8 103.54 134.72 103.54C134.64 103.54 134.576 103.519 134.528 103.476C134.48 103.433 134.456 103.375 134.456 103.3V103.22C134.277 103.433 134.029 103.54 133.712 103.54ZM133.792 103.124C134 103.124 134.163 103.071 134.28 102.964C134.397 102.857 134.456 102.709 134.456 102.52C134.456 102.331 134.397 102.183 134.28 102.076C134.163 101.969 134 101.916 133.792 101.916C133.597 101.916 133.445 101.969 133.336 102.076C133.227 102.183 133.172 102.331 133.172 102.52C133.172 102.709 133.227 102.857 133.336 102.964C133.445 103.071 133.597 103.124 133.792 103.124ZM136.44 103.54C136.211 103.54 136.011 103.499 135.84 103.416C135.669 103.333 135.537 103.217 135.444 103.068C135.353 102.916 135.308 102.739 135.308 102.536C135.308 102.208 135.403 101.953 135.592 101.772C135.784 101.591 136.053 101.5 136.4 101.5C136.613 101.5 136.801 101.533 136.964 101.6C137.129 101.667 137.257 101.76 137.348 101.88C137.441 101.997 137.488 102.132 137.488 102.284C137.488 102.412 137.447 102.511 137.364 102.58C137.284 102.649 137.169 102.684 137.02 102.684H135.816C135.816 102.833 135.868 102.947 135.972 103.024C136.079 103.099 136.235 103.136 136.44 103.136C136.656 103.136 136.84 103.088 136.992 102.992C137.077 102.939 137.144 102.912 137.192 102.912C137.237 102.912 137.281 102.933 137.324 102.976C137.369 103.021 137.392 103.071 137.392 103.124C137.392 103.188 137.365 103.239 137.312 103.276C137.2 103.361 137.069 103.427 136.92 103.472C136.771 103.517 136.611 103.54 136.44 103.54ZM136.86 102.316C136.905 102.316 136.937 102.308 136.956 102.292C136.975 102.273 136.984 102.244 136.984 102.204C136.984 102.111 136.931 102.037 136.824 101.984C136.72 101.931 136.579 101.904 136.4 101.904C136.221 101.904 136.08 101.941 135.976 102.016C135.875 102.091 135.824 102.191 135.824 102.316H136.86ZM138.789 103.54C138.359 103.54 138.043 103.416 137.841 103.168C137.798 103.112 137.777 103.061 137.777 103.016C137.777 102.952 137.81 102.896 137.877 102.848C137.922 102.819 137.966 102.804 138.009 102.804C138.067 102.804 138.122 102.829 138.173 102.88C138.263 102.971 138.351 103.036 138.437 103.076C138.525 103.113 138.633 103.132 138.761 103.132C138.87 103.132 138.962 103.117 139.037 103.088C139.111 103.059 139.149 103.023 139.149 102.98C139.149 102.927 139.118 102.881 139.057 102.844C138.995 102.807 138.871 102.759 138.685 102.7C138.391 102.609 138.183 102.515 138.061 102.416C137.938 102.315 137.877 102.189 137.877 102.04C137.877 101.872 137.949 101.74 138.093 101.644C138.237 101.548 138.435 101.5 138.689 101.5C138.883 101.5 139.059 101.529 139.217 101.588C139.374 101.647 139.489 101.725 139.561 101.824C139.595 101.869 139.613 101.915 139.613 101.96C139.613 102.024 139.581 102.076 139.517 102.116C139.471 102.145 139.425 102.16 139.377 102.16C139.299 102.16 139.229 102.128 139.165 102.064C139.111 102.013 139.042 101.975 138.957 101.948C138.874 101.921 138.783 101.908 138.685 101.908C138.498 101.908 138.405 101.952 138.405 102.04C138.405 102.075 138.419 102.105 138.449 102.132C138.478 102.159 138.53 102.187 138.605 102.216C138.682 102.245 138.802 102.285 138.965 102.336C139.226 102.416 139.409 102.504 139.513 102.6C139.619 102.696 139.673 102.823 139.673 102.98C139.673 103.148 139.595 103.284 139.441 103.388C139.286 103.489 139.069 103.54 138.789 103.54ZM140.26 104.696C140.178 104.696 140.114 104.675 140.068 104.632C140.023 104.589 140 104.531 140 104.456V101.74C140 101.665 140.023 101.607 140.068 101.564C140.114 101.521 140.178 101.5 140.26 101.5C140.34 101.5 140.404 101.521 140.452 101.564C140.5 101.607 140.524 101.665 140.524 101.74V101.82C140.639 101.708 140.758 101.627 140.88 101.576C141.006 101.525 141.147 101.5 141.304 101.5C141.512 101.5 141.694 101.541 141.848 101.624C142.006 101.707 142.126 101.825 142.208 101.98C142.294 102.132 142.336 102.312 142.336 102.52C142.336 102.725 142.294 102.905 142.208 103.06C142.123 103.215 142.002 103.333 141.844 103.416C141.687 103.499 141.502 103.54 141.288 103.54C141.128 103.54 140.988 103.516 140.868 103.468C140.748 103.417 140.635 103.337 140.528 103.228L140.524 104.456C140.524 104.531 140.5 104.589 140.452 104.632C140.404 104.675 140.34 104.696 140.26 104.696ZM141.18 103.124C141.378 103.124 141.531 103.072 141.64 102.968C141.752 102.861 141.808 102.712 141.808 102.52C141.808 102.328 141.752 102.18 141.64 102.076C141.531 101.969 141.378 101.916 141.18 101.916C140.975 101.916 140.814 101.971 140.696 102.08C140.582 102.187 140.524 102.333 140.524 102.52C140.524 102.707 140.582 102.855 140.696 102.964C140.814 103.071 140.975 103.124 141.18 103.124ZM143.756 103.54C143.527 103.54 143.327 103.499 143.156 103.416C142.986 103.333 142.854 103.217 142.76 103.068C142.67 102.916 142.624 102.739 142.624 102.536C142.624 102.208 142.719 101.953 142.908 101.772C143.1 101.591 143.37 101.5 143.716 101.5C143.93 101.5 144.118 101.533 144.28 101.6C144.446 101.667 144.574 101.76 144.664 101.88C144.758 101.997 144.804 102.132 144.804 102.284C144.804 102.412 144.763 102.511 144.68 102.58C144.6 102.649 144.486 102.684 144.336 102.684H143.132C143.132 102.833 143.184 102.947 143.288 103.024C143.395 103.099 143.551 103.136 143.756 103.136C143.972 103.136 144.156 103.088 144.308 102.992C144.394 102.939 144.46 102.912 144.508 102.912C144.554 102.912 144.598 102.933 144.64 102.976C144.686 103.021 144.708 103.071 144.708 103.124C144.708 103.188 144.682 103.239 144.628 103.276C144.516 103.361 144.386 103.427 144.236 103.472C144.087 103.517 143.927 103.54 143.756 103.54ZM144.176 102.316C144.222 102.316 144.254 102.308 144.272 102.292C144.291 102.273 144.3 102.244 144.3 102.204C144.3 102.111 144.247 102.037 144.14 101.984C144.036 101.931 143.895 101.904 143.716 101.904C143.538 101.904 143.396 101.941 143.292 102.016C143.191 102.091 143.14 102.191 143.14 102.316H144.176ZM146.105 103.54C145.676 103.54 145.36 103.416 145.157 103.168C145.115 103.112 145.093 103.061 145.093 103.016C145.093 102.952 145.127 102.896 145.193 102.848C145.239 102.819 145.283 102.804 145.325 102.804C145.384 102.804 145.439 102.829 145.489 102.88C145.58 102.971 145.668 103.036 145.753 103.076C145.841 103.113 145.949 103.132 146.077 103.132C146.187 103.132 146.279 103.117 146.353 103.088C146.428 103.059 146.465 103.023 146.465 102.98C146.465 102.927 146.435 102.881 146.373 102.844C146.312 102.807 146.188 102.759 146.001 102.7C145.708 102.609 145.5 102.515 145.377 102.416C145.255 102.315 145.193 102.189 145.193 102.04C145.193 101.872 145.265 101.74 145.409 101.644C145.553 101.548 145.752 101.5 146.005 101.5C146.2 101.5 146.376 101.529 146.533 101.588C146.691 101.647 146.805 101.725 146.877 101.824C146.912 101.869 146.929 101.915 146.929 101.96C146.929 102.024 146.897 102.076 146.833 102.116C146.788 102.145 146.741 102.16 146.693 102.16C146.616 102.16 146.545 102.128 146.481 102.064C146.428 102.013 146.359 101.975 146.273 101.948C146.191 101.921 146.1 101.908 146.001 101.908C145.815 101.908 145.721 101.952 145.721 102.04C145.721 102.075 145.736 102.105 145.765 102.132C145.795 102.159 145.847 102.187 145.921 102.216C145.999 102.245 146.119 102.285 146.281 102.336C146.543 102.416 146.725 102.504 146.829 102.6C146.936 102.696 146.989 102.823 146.989 102.98C146.989 103.148 146.912 103.284 146.757 103.388C146.603 103.489 146.385 103.54 146.105 103.54ZM148.117 103.54C147.951 103.54 147.805 103.512 147.677 103.456C147.551 103.4 147.453 103.323 147.381 103.224C147.311 103.123 147.277 103.007 147.277 102.876C147.277 102.679 147.358 102.521 147.521 102.404C147.686 102.287 147.909 102.228 148.189 102.228C148.431 102.228 148.626 102.28 148.773 102.384V102.288C148.773 102.163 148.734 102.067 148.657 102C148.579 101.933 148.467 101.9 148.321 101.9C148.102 101.9 147.914 101.947 147.757 102.04C147.69 102.077 147.633 102.096 147.585 102.096C147.526 102.096 147.474 102.069 147.429 102.016C147.399 101.979 147.385 101.94 147.385 101.9C147.385 101.833 147.419 101.775 147.489 101.724C147.585 101.655 147.706 101.6 147.853 101.56C147.999 101.52 148.154 101.5 148.317 101.5C148.626 101.5 148.869 101.571 149.045 101.712C149.223 101.851 149.313 102.043 149.313 102.288V103.316C149.313 103.385 149.289 103.44 149.241 103.48C149.195 103.52 149.133 103.54 149.053 103.54C148.97 103.54 148.906 103.521 148.861 103.484C148.815 103.447 148.793 103.393 148.793 103.324V103.28C148.641 103.453 148.415 103.54 148.117 103.54ZM148.241 103.172C148.409 103.172 148.539 103.147 148.633 103.096C148.729 103.043 148.777 102.969 148.777 102.876C148.777 102.788 148.729 102.717 148.633 102.664C148.537 102.611 148.409 102.584 148.249 102.584C148.105 102.584 147.993 102.609 147.913 102.66C147.835 102.711 147.797 102.783 147.797 102.876C147.797 102.969 147.835 103.043 147.913 103.096C147.99 103.147 148.099 103.172 148.241 103.172ZM150.633 103.54C150.203 103.54 149.887 103.416 149.685 103.168C149.642 103.112 149.621 103.061 149.621 103.016C149.621 102.952 149.654 102.896 149.721 102.848C149.766 102.819 149.81 102.804 149.853 102.804C149.911 102.804 149.966 102.829 150.017 102.88C150.107 102.971 150.195 103.036 150.281 103.076C150.369 103.113 150.477 103.132 150.605 103.132C150.714 103.132 150.806 103.117 150.881 103.088C150.955 103.059 150.993 103.023 150.993 102.98C150.993 102.927 150.962 102.881 150.901 102.844C150.839 102.807 150.715 102.759 150.529 102.7C150.235 102.609 150.027 102.515 149.905 102.416C149.782 102.315 149.721 102.189 149.721 102.04C149.721 101.872 149.793 101.74 149.937 101.644C150.081 101.548 150.279 101.5 150.533 101.5C150.727 101.5 150.903 101.529 151.061 101.588C151.218 101.647 151.333 101.725 151.405 101.824C151.439 101.869 151.457 101.915 151.457 101.96C151.457 102.024 151.425 102.076 151.361 102.116C151.315 102.145 151.269 102.16 151.221 102.16C151.143 102.16 151.073 102.128 151.009 102.064C150.955 102.013 150.886 101.975 150.801 101.948C150.718 101.921 150.627 101.908 150.529 101.908C150.342 101.908 150.249 101.952 150.249 102.04C150.249 102.075 150.263 102.105 150.293 102.132C150.322 102.159 150.374 102.187 150.449 102.216C150.526 102.245 150.646 102.285 150.809 102.336C151.07 102.416 151.253 102.504 151.357 102.6C151.463 102.696 151.517 102.823 151.517 102.98C151.517 103.148 151.439 103.284 151.285 103.388C151.13 103.489 150.913 103.54 150.633 103.54Z" fill="#707070"/>
<path d="M132.948 108.084C132.948 107.711 133.055 107.42 133.268 107.212C133.487 107.004 133.788 106.9 134.172 106.9H135.596C136.391 106.9 136.991 107.055 137.396 107.364C137.801 107.673 138.004 108.135 138.004 108.748C138.004 109.319 137.833 109.764 137.492 110.084C137.156 110.404 136.703 110.564 136.132 110.564L137.348 111.772C137.444 111.868 137.492 111.977 137.492 112.1C137.492 112.228 137.436 112.34 137.324 112.436C137.207 112.527 137.092 112.572 136.98 112.572C136.825 112.572 136.684 112.503 136.556 112.364L134.828 110.596H134.012V112.1C134.012 112.249 133.961 112.367 133.86 112.452C133.759 112.537 133.631 112.58 133.476 112.58C133.316 112.58 133.188 112.537 133.092 112.452C132.996 112.367 132.948 112.249 132.948 112.1V108.084ZM135.564 109.772C135.916 109.772 136.191 109.737 136.388 109.668C136.585 109.599 136.724 109.492 136.804 109.348C136.889 109.199 136.932 108.999 136.932 108.748C136.932 108.385 136.82 108.124 136.596 107.964C136.377 107.804 136.033 107.724 135.564 107.724H134.356C134.249 107.724 134.164 107.759 134.1 107.828C134.041 107.897 134.012 107.993 134.012 108.116V109.772H135.564ZM143.719 111.012C143.719 111.449 143.535 111.801 143.167 112.068C142.804 112.335 142.3 112.479 141.655 112.5V113.076C141.655 113.167 141.623 113.239 141.559 113.292C141.5 113.351 141.415 113.38 141.303 113.38C141.196 113.38 141.111 113.351 141.047 113.292C140.988 113.239 140.959 113.167 140.959 113.076V112.46C140.548 112.407 140.164 112.297 139.807 112.132C139.45 111.967 139.135 111.753 138.863 111.492C138.783 111.417 138.743 111.327 138.743 111.22C138.743 111.092 138.796 110.98 138.903 110.884C138.988 110.799 139.082 110.756 139.183 110.756C139.3 110.756 139.428 110.817 139.567 110.94C139.754 111.1 139.964 111.239 140.199 111.356C140.439 111.468 140.692 111.551 140.959 111.604V110.052C140.234 109.871 139.714 109.647 139.399 109.38C139.09 109.108 138.935 108.764 138.935 108.348C138.935 108.087 139.015 107.852 139.175 107.644C139.335 107.431 139.567 107.26 139.871 107.132C140.18 107.004 140.543 106.929 140.959 106.908V106.172C140.959 106.081 140.988 106.009 141.047 105.956C141.111 105.897 141.196 105.868 141.303 105.868C141.415 105.868 141.5 105.897 141.559 105.956C141.623 106.009 141.655 106.081 141.655 106.172V106.924C142.055 106.967 142.407 107.065 142.711 107.22C143.02 107.375 143.255 107.577 143.415 107.828C143.484 107.94 143.519 108.036 143.519 108.116C143.514 108.249 143.447 108.364 143.319 108.46C143.25 108.513 143.17 108.54 143.079 108.54C143.004 108.54 142.93 108.521 142.855 108.484C142.786 108.447 142.724 108.399 142.671 108.34C142.554 108.201 142.407 108.084 142.231 107.988C142.06 107.887 141.868 107.817 141.655 107.78V109.236C142.396 109.401 142.924 109.628 143.239 109.916C143.559 110.199 143.719 110.564 143.719 111.012ZM140.007 108.348C140.007 108.524 140.082 108.671 140.231 108.788C140.38 108.9 140.623 108.999 140.959 109.084V107.748C140.655 107.769 140.42 107.831 140.255 107.932C140.09 108.033 140.007 108.172 140.007 108.348ZM141.655 111.66C141.97 111.649 142.212 111.591 142.383 111.484C142.559 111.372 142.647 111.215 142.647 111.012C142.647 110.82 142.572 110.665 142.423 110.548C142.274 110.425 142.018 110.316 141.655 110.22V111.66ZM146.198 112.58C146.038 112.58 145.91 112.537 145.814 112.452C145.718 112.367 145.67 112.249 145.67 112.1V107.948L144.982 108.212C144.886 108.249 144.793 108.268 144.702 108.268C144.515 108.268 144.382 108.188 144.302 108.028C144.265 107.953 144.246 107.876 144.246 107.796C144.246 107.615 144.358 107.484 144.582 107.404L146.062 106.844C146.126 106.823 146.193 106.812 146.262 106.812C146.401 106.812 146.513 106.857 146.598 106.948C146.689 107.039 146.734 107.159 146.734 107.308V112.1C146.734 112.244 146.683 112.361 146.582 112.452C146.486 112.537 146.358 112.58 146.198 112.58ZM150.045 112.58C149.506 112.58 149.042 112.465 148.653 112.236C148.263 112.007 147.965 111.676 147.757 111.244C147.554 110.812 147.453 110.297 147.453 109.7C147.453 109.103 147.554 108.588 147.757 108.156C147.965 107.724 148.263 107.393 148.653 107.164C149.042 106.935 149.506 106.82 150.045 106.82C150.583 106.82 151.047 106.935 151.437 107.164C151.826 107.393 152.122 107.724 152.325 108.156C152.533 108.588 152.637 109.103 152.637 109.7C152.637 110.297 152.533 110.812 152.325 111.244C152.122 111.676 151.826 112.007 151.437 112.236C151.047 112.465 150.583 112.58 150.045 112.58ZM150.045 111.74C150.525 111.74 150.898 111.561 151.165 111.204C151.437 110.841 151.573 110.34 151.573 109.7C151.573 109.06 151.437 108.561 151.165 108.204C150.898 107.841 150.525 107.66 150.045 107.66C149.565 107.66 149.189 107.841 148.917 108.204C148.65 108.561 148.517 109.06 148.517 109.7C148.517 110.34 148.65 110.841 148.917 111.204C149.189 111.561 149.565 111.74 150.045 111.74ZM155.865 112.58C155.326 112.58 154.862 112.465 154.473 112.236C154.084 112.007 153.785 111.676 153.577 111.244C153.374 110.812 153.273 110.297 153.273 109.7C153.273 109.103 153.374 108.588 153.577 108.156C153.785 107.724 154.084 107.393 154.473 107.164C154.862 106.935 155.326 106.82 155.865 106.82C156.404 106.82 156.868 106.935 157.257 107.164C157.646 107.393 157.942 107.724 158.145 108.156C158.353 108.588 158.457 109.103 158.457 109.7C158.457 110.297 158.353 110.812 158.145 111.244C157.942 111.676 157.646 112.007 157.257 112.236C156.868 112.465 156.404 112.58 155.865 112.58ZM155.865 111.74C156.345 111.74 156.718 111.561 156.985 111.204C157.257 110.841 157.393 110.34 157.393 109.7C157.393 109.06 157.257 108.561 156.985 108.204C156.718 107.841 156.345 107.66 155.865 107.66C155.385 107.66 155.009 107.841 154.737 108.204C154.47 108.561 154.337 109.06 154.337 109.7C154.337 110.34 154.47 110.841 154.737 111.204C155.009 111.561 155.385 111.74 155.865 111.74ZM159.189 113.596C159.157 113.559 159.141 113.513 159.141 113.46C159.141 113.385 159.189 113.311 159.285 113.236C159.387 113.161 159.48 113.068 159.565 112.956C159.651 112.849 159.709 112.745 159.741 112.644C159.72 112.649 159.685 112.652 159.637 112.652C159.488 112.652 159.36 112.604 159.253 112.508C159.147 112.412 159.093 112.287 159.093 112.132C159.093 111.935 159.155 111.783 159.277 111.676C159.4 111.564 159.571 111.508 159.789 111.508C160.008 111.508 160.179 111.575 160.301 111.708C160.429 111.836 160.493 112.017 160.493 112.252C160.493 112.465 160.416 112.695 160.261 112.94C160.112 113.185 159.909 113.391 159.653 113.556C159.531 113.636 159.435 113.676 159.365 113.676C159.301 113.676 159.243 113.649 159.189 113.596ZM163.725 112.58C163.186 112.58 162.722 112.465 162.333 112.236C161.943 112.007 161.645 111.676 161.437 111.244C161.234 110.812 161.133 110.297 161.133 109.7C161.133 109.103 161.234 108.588 161.437 108.156C161.645 107.724 161.943 107.393 162.333 107.164C162.722 106.935 163.186 106.82 163.725 106.82C164.263 106.82 164.727 106.935 165.117 107.164C165.506 107.393 165.802 107.724 166.005 108.156C166.213 108.588 166.317 109.103 166.317 109.7C166.317 110.297 166.213 110.812 166.005 111.244C165.802 111.676 165.506 112.007 165.117 112.236C164.727 112.465 164.263 112.58 163.725 112.58ZM163.725 111.74C164.205 111.74 164.578 111.561 164.845 111.204C165.117 110.841 165.253 110.34 165.253 109.7C165.253 109.06 165.117 108.561 164.845 108.204C164.578 107.841 164.205 107.66 163.725 107.66C163.245 107.66 162.869 107.841 162.597 108.204C162.33 108.561 162.197 109.06 162.197 109.7C162.197 110.34 162.33 110.841 162.597 111.204C162.869 111.561 163.245 111.74 163.725 111.74ZM169.545 112.58C169.006 112.58 168.542 112.465 168.153 112.236C167.763 112.007 167.465 111.676 167.257 111.244C167.054 110.812 166.953 110.297 166.953 109.7C166.953 109.103 167.054 108.588 167.257 108.156C167.465 107.724 167.763 107.393 168.153 107.164C168.542 106.935 169.006 106.82 169.545 106.82C170.083 106.82 170.547 106.935 170.937 107.164C171.326 107.393 171.622 107.724 171.825 108.156C172.033 108.588 172.137 109.103 172.137 109.7C172.137 110.297 172.033 110.812 171.825 111.244C171.622 111.676 171.326 112.007 170.937 112.236C170.547 112.465 170.083 112.58 169.545 112.58ZM169.545 111.74C170.025 111.74 170.398 111.561 170.665 111.204C170.937 110.841 171.073 110.34 171.073 109.7C171.073 109.06 170.937 108.561 170.665 108.204C170.398 107.841 170.025 107.66 169.545 107.66C169.065 107.66 168.689 107.841 168.417 108.204C168.15 108.561 168.017 109.06 168.017 109.7C168.017 110.34 168.15 110.841 168.417 111.204C168.689 111.561 169.065 111.74 169.545 111.74Z" fill="#444444"/>
</g>
<defs>
<filter id="filter0_d_6_45" x="9.5" y="95.5" width="87" height="31" filterUnits="userSpaceOnUse" color-interpolation-filters="sRGB">
<feFlood flood-opacity="0" result="BackgroundImageFix"/>
<feColorMatrix in="SourceAlpha" type="matrix" values="0 0 0 0 0 0 0 0 0 0 0 0 0 0 0 0 0 0 127 0" result="hardAlpha"/>
<feOffset dy="4"/>
<feGaussianBlur stdDeviation="2"/>
<feComposite in2="hardAlpha" operator="out"/>
<feColorMatrix type="matrix" values="0 0 0 0 0 0 0 0 0 0 0 0 0 0 0 0 0 0 0.25 0"/>
<feBlend mode="normal" in2="BackgroundImageFix" result="effect1_dropShadow_6_45"/>
<feBlend mode="normal" in="SourceGraphic" in2="effect1_dropShadow_6_45" result="shape"/>
</filter>
<filter id="filter1_b_6_45" x="9.5" y="91.5" width="31" height="31" filterUnits="userSpaceOnUse" color-interpolation-filters="sRGB">
<feFlood flood-opacity="0" result="BackgroundImageFix"/>
<feGaussianBlur in="BackgroundImageFix" stdDeviation="2"/>
<feComposite in2="SourceAlpha" operator="in" result="effect1_backgroundBlur_6_45"/>
<feBlend mode="normal" in="SourceGraphic" in2="effect1_backgroundBlur_6_45" result="shape"/>
</filter>
<filter id="filter2_d_6_45" x="96.5" y="95.5" width="87" height="31" filterUnits="userSpaceOnUse" color-interpolation-filters="sRGB">
<feFlood flood-opacity="0" result="BackgroundImageFix"/>
<feColorMatrix in="SourceAlpha" type="matrix" values="0 0 0 0 0 0 0 0 0 0 0 0 0 0 0 0 0 0 127 0" result="hardAlpha"/>
<feOffset dy="4"/>
<feGaussianBlur stdDeviation="2"/>
<feComposite in2="hardAlpha" operator="out"/>
<feColorMatrix type="matrix" values="0 0 0 0 0 0 0 0 0 0 0 0 0 0 0 0 0 0 0.25 0"/>
<feBlend mode="normal" in2="BackgroundImageFix" result="effect1_dropShadow_6_45"/>
<feBlend mode="normal" in="SourceGraphic" in2="effect1_dropShadow_6_45" result="shape"/>
</filter>
<filter id="filter3_b_6_45" x="96.5" y="91.5" width="31" height="31" filterUnits="userSpaceOnUse" color-interpolation-filters="sRGB">
<feFlood flood-opacity="0" result="BackgroundImageFix"/>
<feGaussianBlur in="BackgroundImageFix" stdDeviation="2"/>
<feComposite in2="SourceAlpha" operator="in" result="effect1_backgroundBlur_6_45"/>
<feBlend mode="normal" in="SourceGraphic" in2="effect1_backgroundBlur_6_45" result="shape"/>
</filter>
</defs>
</svg>
