<svg width="122" height="122" viewBox="0 0 122 122" fill="none" xmlns="http://www.w3.org/2000/svg">
<path d="M4.864 65.32C4.224 65.32 3.712 65.1493 3.328 64.808C2.944 64.4667 2.752 63.9973 2.752 63.4V44.2C2.752 43.6027 2.944 43.1333 3.328 42.792C3.712 42.4507 4.224 42.28 4.864 42.28C5.48267 42.28 5.99467 42.4507 6.4 42.792C6.80533 43.1333 7.008 43.6027 7.008 44.2V63.4C7.008 63.9973 6.80533 64.4667 6.4 64.808C5.99467 65.1493 5.48267 65.32 4.864 65.32ZM13.494 65.32C12.854 65.32 12.342 65.1493 11.958 64.808C11.574 64.4667 11.382 63.9973 11.382 63.4V51.336C11.382 48.4987 12.2673 46.28 14.038 44.68C15.8087 43.08 18.262 42.28 21.398 42.28C24.534 42.28 26.9873 43.08 28.758 44.68C30.5287 46.28 31.414 48.4987 31.414 51.336V63.4C31.414 63.9973 31.222 64.4667 30.838 64.808C30.454 65.1493 29.942 65.32 29.302 65.32C28.662 65.32 28.1393 65.1493 27.734 64.808C27.35 64.4453 27.158 63.976 27.158 63.4V51.24C27.158 49.4267 26.6673 48.04 25.686 47.08C24.7047 46.12 23.2753 45.64 21.398 45.64C19.5207 45.64 18.0913 46.12 17.11 47.08C16.1287 48.04 15.638 49.4267 15.638 51.24V63.4C15.638 63.976 15.4353 64.4453 15.03 64.808C14.646 65.1493 14.134 65.32 13.494 65.32ZM45.3833 65.32C43.8899 65.32 42.6526 64.808 41.6713 63.784C40.6899 62.7387 39.8259 61.0213 39.0793 58.632L34.6313 44.488C34.5459 44.232 34.5033 43.9653 34.5033 43.688C34.5033 42.7493 35.1646 42.28 36.4873 42.28C37.1486 42.28 37.6499 42.408 37.9913 42.664C38.3539 42.92 38.6206 43.336 38.7913 43.912L43.2073 58.312C43.6126 59.6133 43.9859 60.552 44.3273 61.128C44.6686 61.704 45.0206 61.992 45.3833 61.992C45.7459 61.992 46.0979 61.704 46.4393 61.128C46.7806 60.552 47.1539 59.6133 47.5593 58.312L51.9753 43.912C52.1459 43.336 52.4019 42.92 52.7433 42.664C53.1059 42.408 53.6179 42.28 54.2793 42.28C55.6019 42.28 56.2633 42.7493 56.2633 43.688C56.2633 43.9653 56.2206 44.232 56.1353 44.488L51.6873 58.632C50.9406 61.0213 50.0766 62.7387 49.0953 63.784C48.1139 64.808 46.8766 65.32 45.3833 65.32ZM62.614 65.32C61.974 65.32 61.462 65.1493 61.078 64.808C60.694 64.4667 60.502 63.9973 60.502 63.4V44.2C60.502 43.6027 60.694 43.1333 61.078 42.792C61.462 42.4507 61.974 42.28 62.614 42.28C63.2327 42.28 63.7447 42.4507 64.15 42.792C64.5553 43.1333 64.758 43.6027 64.758 44.2V63.4C64.758 63.9973 64.5553 64.4667 64.15 64.808C63.7447 65.1493 63.2327 65.32 62.614 65.32ZM80.108 65.32C78.0173 65.32 76.0547 64.9787 74.22 64.296C72.3853 63.592 70.796 62.5893 69.452 61.288C69.132 60.968 68.972 60.6053 68.972 60.2C68.972 59.7307 69.1853 59.2827 69.612 58.856C69.9533 58.5147 70.3267 58.344 70.732 58.344C71.1587 58.344 71.6707 58.5893 72.268 59.08C73.2707 59.9973 74.4547 60.712 75.82 61.224C77.2067 61.7147 78.636 61.96 80.108 61.96C81.516 61.96 82.6147 61.7253 83.404 61.256C84.1933 60.7653 84.588 60.0827 84.588 59.208C84.588 58.2907 84.1613 57.5547 83.308 57C82.4547 56.424 81.004 55.912 78.956 55.464C75.7347 54.76 73.388 53.832 71.916 52.68C70.4653 51.528 69.74 50.0453 69.74 48.232C69.74 47.08 70.124 46.056 70.892 45.16C71.66 44.2427 72.7267 43.5387 74.092 43.048C75.4787 42.536 77.0573 42.28 78.828 42.28C80.812 42.28 82.572 42.6107 84.108 43.272C85.6653 43.912 86.8493 44.8187 87.66 45.992C87.9373 46.44 88.076 46.824 88.076 47.144C88.0547 47.6773 87.788 48.136 87.276 48.52C86.9987 48.712 86.6787 48.808 86.316 48.808C85.6547 48.808 85.1107 48.552 84.684 48.04C84.0653 47.2933 83.2333 46.7067 82.188 46.28C81.164 45.8533 80.044 45.64 78.828 45.64C77.3133 45.64 76.1293 45.8747 75.276 46.344C74.444 46.792 74.028 47.4213 74.028 48.232C74.028 49.0427 74.4333 49.7147 75.244 50.248C76.076 50.76 77.5053 51.2507 79.532 51.72C81.772 52.2533 83.5747 52.8613 84.94 53.544C86.3053 54.2053 87.2973 54.9947 87.916 55.912C88.556 56.8293 88.876 57.928 88.876 59.208C88.876 60.424 88.5133 61.5013 87.788 62.44C87.0627 63.3573 86.0387 64.072 84.716 64.584C83.3933 65.0747 81.8573 65.32 80.108 65.32ZM100.635 65.32C99.9953 65.32 99.4833 65.1493 99.0993 64.808C98.7153 64.4667 98.5233 63.9973 98.5233 63.4V45.896H92.3473C91.7286 45.896 91.2379 45.7573 90.8753 45.48C90.5339 45.1813 90.3633 44.776 90.3633 44.264C90.3633 43.7307 90.5339 43.3253 90.8753 43.048C91.2166 42.7493 91.7073 42.6 92.3473 42.6H108.955C109.595 42.6 110.086 42.7493 110.427 43.048C110.769 43.3253 110.939 43.7307 110.939 44.264C110.939 44.776 110.758 45.1813 110.395 45.48C110.054 45.7573 109.574 45.896 108.955 45.896H102.779V63.4C102.779 63.976 102.577 64.4453 102.171 64.808C101.787 65.1493 101.275 65.32 100.635 65.32ZM116.645 65.32C116.005 65.32 115.493 65.1493 115.109 64.808C114.725 64.4667 114.533 63.9973 114.533 63.4V44.2C114.533 43.6027 114.725 43.1333 115.109 42.792C115.493 42.4507 116.005 42.28 116.645 42.28C117.264 42.28 117.776 42.4507 118.181 42.792C118.587 43.1333 118.789 43.6027 118.789 44.2V63.4C118.789 63.9973 118.587 64.4667 118.181 64.808C117.776 65.1493 117.264 65.32 116.645 65.32Z" fill="white"/>
<path d="M54.4553 86C53.8473 86 53.3753 85.84 53.0393 85.52C52.7033 85.2 52.5353 84.752 52.5353 84.176V79.376C52.5353 78.816 52.6953 78.38 53.0153 78.068C53.3433 77.756 53.7953 77.6 54.3713 77.6H57.1433C58.0713 77.6 58.7873 77.796 59.2913 78.188C59.7953 78.58 60.0473 79.148 60.0473 79.892C60.0473 80.26 59.9393 80.604 59.7233 80.924C59.5073 81.236 59.2273 81.472 58.8833 81.632V81.644C59.2673 81.796 59.5793 82.04 59.8193 82.376C60.0673 82.704 60.1913 83.06 60.1913 83.444C60.1913 84.244 59.9313 84.872 59.4113 85.328C58.8993 85.776 58.1913 86 57.2873 86H54.4553ZM57.1433 81.068C57.5513 81.068 57.8673 80.968 58.0913 80.768C58.3233 80.568 58.4393 80.28 58.4393 79.904C58.4393 79.536 58.3313 79.264 58.1153 79.088C57.8993 78.912 57.5753 78.824 57.1433 78.824H54.6233C54.4633 78.824 54.3353 78.876 54.2393 78.98C54.1513 79.084 54.1073 79.228 54.1073 79.412V81.068H57.1433ZM57.1433 84.776C58.1033 84.776 58.5833 84.34 58.5833 83.468C58.5833 83.092 58.4553 82.8 58.1993 82.592C57.9513 82.384 57.5993 82.28 57.1433 82.28H54.1073V84.188C54.1073 84.372 54.1513 84.516 54.2393 84.62C54.3353 84.724 54.4633 84.776 54.6233 84.776H57.1433ZM67.9054 77.48C68.1454 77.48 68.3374 77.544 68.4814 77.672C68.6254 77.8 68.6974 77.976 68.6974 78.2V79.46C68.6974 80.524 68.4294 81.392 67.8934 82.064C67.3574 82.728 66.6094 83.132 65.6494 83.276V85.4C65.6494 85.616 65.5734 85.792 65.4214 85.928C65.2774 86.056 65.0854 86.12 64.8454 86.12C64.6054 86.12 64.4134 86.056 64.2694 85.928C64.1254 85.8 64.0534 85.624 64.0534 85.4V83.276C63.0854 83.132 62.3334 82.728 61.7974 82.064C61.2614 81.4 60.9934 80.532 60.9934 79.46V78.2C60.9934 77.976 61.0654 77.8 61.2094 77.672C61.3534 77.544 61.5454 77.48 61.7854 77.48C62.0254 77.48 62.2174 77.548 62.3614 77.684C62.5134 77.812 62.5894 77.984 62.5894 78.2V79.496C62.5894 80.328 62.7814 80.968 63.1654 81.416C63.5574 81.856 64.1174 82.076 64.8454 82.076C65.5734 82.076 66.1294 81.856 66.5134 81.416C66.9054 80.968 67.1014 80.328 67.1014 79.496V78.2C67.1014 77.984 67.1734 77.812 67.3174 77.684C67.4694 77.548 67.6654 77.48 67.9054 77.48ZM73.9288 86.12C73.6888 86.12 73.4968 86.056 73.3528 85.928C73.2088 85.8 73.1368 85.624 73.1368 85.4V79.376C73.1368 78.816 73.2968 78.38 73.6168 78.068C73.9448 77.756 74.3968 77.6 74.9728 77.6H78.7048C78.9448 77.6 79.1288 77.656 79.2568 77.768C79.3848 77.872 79.4488 78.024 79.4488 78.224C79.4488 78.416 79.3808 78.568 79.2448 78.68C79.1168 78.784 78.9368 78.836 78.7048 78.836H75.2488C75.0888 78.836 74.9608 78.888 74.8648 78.992C74.7768 79.096 74.7328 79.24 74.7328 79.424V81.212H77.7928C78.0328 81.212 78.2168 81.268 78.3448 81.38C78.4728 81.484 78.5368 81.636 78.5368 81.836C78.5368 82.028 78.4688 82.18 78.3328 82.292C78.2048 82.396 78.0248 82.448 77.7928 82.448H74.7328V85.4C74.7328 85.616 74.6568 85.792 74.5048 85.928C74.3608 86.056 74.1688 86.12 73.9288 86.12ZM80.8649 86.108C80.6249 86.108 80.4329 86.044 80.2889 85.916C80.1449 85.788 80.0729 85.612 80.0729 85.388V81.188C80.0729 80.028 80.4049 79.12 81.0689 78.464C81.7329 77.808 82.6569 77.48 83.8409 77.48C84.6169 77.48 85.2889 77.628 85.8569 77.924C86.4249 78.22 86.8569 78.648 87.1529 79.208C87.4569 79.768 87.6089 80.428 87.6089 81.188V85.388C87.6089 85.612 87.5369 85.788 87.3929 85.916C87.2489 86.044 87.0569 86.108 86.8169 86.108C86.5769 86.108 86.3809 86.044 86.2289 85.916C86.0849 85.78 86.0129 85.604 86.0129 85.388V83.432H81.6689V85.388C81.6689 85.604 81.5929 85.78 81.4409 85.916C81.2969 86.044 81.1049 86.108 80.8649 86.108ZM86.0129 82.196V81.152C86.0129 80.352 85.8289 79.752 85.4609 79.352C85.1009 78.944 84.5609 78.74 83.8409 78.74C82.3929 78.74 81.6689 79.544 81.6689 81.152V82.196H86.0129ZM93.1826 86.12C92.2786 86.12 91.4946 85.948 90.8306 85.604C90.1666 85.26 89.6586 84.764 89.3066 84.116C88.9546 83.468 88.7786 82.7 88.7786 81.812C88.7786 80.924 88.9546 80.156 89.3066 79.508C89.6586 78.852 90.1626 78.352 90.8186 78.008C91.4826 77.656 92.2626 77.48 93.1586 77.48C93.9026 77.48 94.5906 77.608 95.2226 77.864C95.8546 78.12 96.3226 78.46 96.6266 78.884C96.7226 79.012 96.7706 79.144 96.7706 79.28C96.7706 79.48 96.6626 79.66 96.4466 79.82C96.3506 79.892 96.2306 79.928 96.0866 79.928C95.9666 79.928 95.8466 79.904 95.7266 79.856C95.6066 79.8 95.5066 79.724 95.4266 79.628C95.1546 79.316 94.8386 79.092 94.4786 78.956C94.1186 78.812 93.6786 78.74 93.1586 78.74C92.2866 78.74 91.6066 79.012 91.1186 79.556C90.6306 80.092 90.3866 80.844 90.3866 81.812C90.3866 82.772 90.6306 83.52 91.1186 84.056C91.6146 84.592 92.3026 84.86 93.1826 84.86C93.9106 84.86 94.4786 84.72 94.8866 84.44C95.3026 84.16 95.5106 83.772 95.5106 83.276V83.012C95.5106 82.844 95.4706 82.728 95.3906 82.664C95.3186 82.6 95.1906 82.568 95.0066 82.568H93.4346C93.2106 82.568 93.0346 82.516 92.9066 82.412C92.7786 82.3 92.7146 82.148 92.7146 81.956C92.7146 81.756 92.7746 81.604 92.8946 81.5C93.0226 81.388 93.2026 81.332 93.4346 81.332H95.7626C96.2266 81.332 96.5666 81.432 96.7826 81.632C96.9986 81.824 97.1066 82.132 97.1066 82.556V83.024C97.1066 83.632 96.9426 84.172 96.6146 84.644C96.2866 85.108 95.8226 85.472 95.2226 85.736C94.6306 85.992 93.9506 86.12 93.1826 86.12ZM102.016 86.12C101.264 86.12 100.604 85.968 100.036 85.664C99.4762 85.36 99.0402 84.928 98.7282 84.368C98.4242 83.8 98.2722 83.132 98.2722 82.364V78.2C98.2722 77.976 98.3442 77.8 98.4882 77.672C98.6322 77.544 98.8242 77.48 99.0642 77.48C99.3042 77.48 99.4962 77.548 99.6402 77.684C99.7922 77.812 99.8682 77.984 99.8682 78.2V82.4C99.8682 83.192 100.056 83.8 100.432 84.224C100.808 84.648 101.348 84.86 102.052 84.86C102.748 84.86 103.284 84.648 103.66 84.224C104.044 83.792 104.236 83.184 104.236 82.4V78.2C104.236 77.984 104.308 77.812 104.452 77.684C104.604 77.548 104.8 77.48 105.04 77.48C105.28 77.48 105.472 77.544 105.616 77.672C105.76 77.8 105.832 77.976 105.832 78.2V82.364C105.832 83.108 105.672 83.764 105.352 84.332C105.04 84.9 104.596 85.34 104.02 85.652C103.444 85.964 102.776 86.12 102.016 86.12ZM108.273 86.12C108.033 86.12 107.841 86.056 107.697 85.928C107.553 85.8 107.481 85.624 107.481 85.4V78.2C107.481 77.976 107.553 77.8 107.697 77.672C107.841 77.544 108.033 77.48 108.273 77.48C108.505 77.48 108.697 77.544 108.849 77.672C109.001 77.8 109.077 77.976 109.077 78.2V85.4C109.077 85.624 109.001 85.8 108.849 85.928C108.697 86.056 108.505 86.12 108.273 86.12ZM111.569 86.12C111.329 86.12 111.137 86.056 110.993 85.928C110.849 85.8 110.777 85.624 110.777 85.4V80.456C110.777 79.528 111.041 78.8 111.569 78.272C112.097 77.744 112.825 77.48 113.753 77.48C114.201 77.48 114.621 77.592 115.013 77.816C115.413 78.032 115.757 78.344 116.045 78.752C116.325 78.336 116.661 78.02 117.053 77.804C117.453 77.588 117.885 77.48 118.349 77.48C119.277 77.48 120.005 77.744 120.533 78.272C121.061 78.8 121.325 79.528 121.325 80.456V85.4C121.325 85.616 121.249 85.792 121.097 85.928C120.953 86.056 120.761 86.12 120.521 86.12C120.281 86.12 120.089 86.056 119.945 85.928C119.801 85.8 119.729 85.624 119.729 85.4V80.456C119.729 79.848 119.617 79.412 119.393 79.148C119.169 78.876 118.801 78.74 118.289 78.74C117.825 78.74 117.465 78.888 117.209 79.184C116.961 79.48 116.837 79.904 116.837 80.456V85.4C116.837 85.624 116.765 85.8 116.621 85.928C116.477 86.056 116.285 86.12 116.045 86.12C115.805 86.12 115.613 86.056 115.469 85.928C115.333 85.8 115.265 85.624 115.265 85.4V80.456C115.265 79.92 115.137 79.5 114.881 79.196C114.625 78.892 114.269 78.74 113.813 78.74C113.301 78.74 112.933 78.876 112.709 79.148C112.485 79.412 112.373 79.848 112.373 80.456V85.4C112.373 85.616 112.297 85.792 112.145 85.928C112.001 86.056 111.809 86.12 111.569 86.12Z" fill="white"/>
</svg>
