<svg width="122" height="58" viewBox="0 0 122 58" fill="none" xmlns="http://www.w3.org/2000/svg">
<path d="M4.864 33.32C4.224 33.32 3.712 33.1493 3.328 32.808C2.944 32.4667 2.752 31.9973 2.752 31.4V12.2C2.752 11.6027 2.944 11.1333 3.328 10.792C3.712 10.4507 4.224 10.28 4.864 10.28C5.48267 10.28 5.99467 10.4507 6.4 10.792C6.80533 11.1333 7.008 11.6027 7.008 12.2V31.4C7.008 31.9973 6.80533 32.4667 6.4 32.808C5.99467 33.1493 5.48267 33.32 4.864 33.32ZM13.494 33.32C12.854 33.32 12.342 33.1493 11.958 32.808C11.574 32.4667 11.382 31.9973 11.382 31.4V19.336C11.382 16.4987 12.2673 14.28 14.038 12.68C15.8087 11.08 18.262 10.28 21.398 10.28C24.534 10.28 26.9873 11.08 28.758 12.68C30.5287 14.28 31.414 16.4987 31.414 19.336V31.4C31.414 31.9973 31.222 32.4667 30.838 32.808C30.454 33.1493 29.942 33.32 29.302 33.32C28.662 33.32 28.1393 33.1493 27.734 32.808C27.35 32.4453 27.158 31.976 27.158 31.4V19.24C27.158 17.4267 26.6673 16.04 25.686 15.08C24.7047 14.12 23.2753 13.64 21.398 13.64C19.5207 13.64 18.0913 14.12 17.11 15.08C16.1287 16.04 15.638 17.4267 15.638 19.24V31.4C15.638 31.976 15.4353 32.4453 15.03 32.808C14.646 33.1493 14.134 33.32 13.494 33.32ZM45.3833 33.32C43.8899 33.32 42.6526 32.808 41.6713 31.784C40.6899 30.7387 39.8259 29.0213 39.0793 26.632L34.6313 12.488C34.5459 12.232 34.5033 11.9653 34.5033 11.688C34.5033 10.7493 35.1646 10.28 36.4873 10.28C37.1486 10.28 37.6499 10.408 37.9913 10.664C38.3539 10.92 38.6206 11.336 38.7913 11.912L43.2073 26.312C43.6126 27.6133 43.9859 28.552 44.3273 29.128C44.6686 29.704 45.0206 29.992 45.3833 29.992C45.7459 29.992 46.0979 29.704 46.4393 29.128C46.7806 28.552 47.1539 27.6133 47.5593 26.312L51.9753 11.912C52.1459 11.336 52.4019 10.92 52.7433 10.664C53.1059 10.408 53.6179 10.28 54.2793 10.28C55.6019 10.28 56.2633 10.7493 56.2633 11.688C56.2633 11.9653 56.2206 12.232 56.1353 12.488L51.6873 26.632C50.9406 29.0213 50.0766 30.7387 49.0953 31.784C48.1139 32.808 46.8766 33.32 45.3833 33.32ZM62.614 33.32C61.974 33.32 61.462 33.1493 61.078 32.808C60.694 32.4667 60.502 31.9973 60.502 31.4V12.2C60.502 11.6027 60.694 11.1333 61.078 10.792C61.462 10.4507 61.974 10.28 62.614 10.28C63.2327 10.28 63.7447 10.4507 64.15 10.792C64.5553 11.1333 64.758 11.6027 64.758 12.2V31.4C64.758 31.9973 64.5553 32.4667 64.15 32.808C63.7447 33.1493 63.2327 33.32 62.614 33.32ZM80.108 33.32C78.0173 33.32 76.0547 32.9787 74.22 32.296C72.3853 31.592 70.796 30.5893 69.452 29.288C69.132 28.968 68.972 28.6053 68.972 28.2C68.972 27.7307 69.1853 27.2827 69.612 26.856C69.9533 26.5147 70.3267 26.344 70.732 26.344C71.1587 26.344 71.6707 26.5893 72.268 27.08C73.2707 27.9973 74.4547 28.712 75.82 29.224C77.2067 29.7147 78.636 29.96 80.108 29.96C81.516 29.96 82.6147 29.7253 83.404 29.256C84.1933 28.7653 84.588 28.0827 84.588 27.208C84.588 26.2907 84.1613 25.5547 83.308 25C82.4547 24.424 81.004 23.912 78.956 23.464C75.7347 22.76 73.388 21.832 71.916 20.68C70.4653 19.528 69.74 18.0453 69.74 16.232C69.74 15.08 70.124 14.056 70.892 13.16C71.66 12.2427 72.7267 11.5387 74.092 11.048C75.4787 10.536 77.0573 10.28 78.828 10.28C80.812 10.28 82.572 10.6107 84.108 11.272C85.6653 11.912 86.8493 12.8187 87.66 13.992C87.9373 14.44 88.076 14.824 88.076 15.144C88.0547 15.6773 87.788 16.136 87.276 16.52C86.9987 16.712 86.6787 16.808 86.316 16.808C85.6547 16.808 85.1107 16.552 84.684 16.04C84.0653 15.2933 83.2333 14.7067 82.188 14.28C81.164 13.8533 80.044 13.64 78.828 13.64C77.3133 13.64 76.1293 13.8747 75.276 14.344C74.444 14.792 74.028 15.4213 74.028 16.232C74.028 17.0427 74.4333 17.7147 75.244 18.248C76.076 18.76 77.5053 19.2507 79.532 19.72C81.772 20.2533 83.5747 20.8613 84.94 21.544C86.3053 22.2053 87.2973 22.9947 87.916 23.912C88.556 24.8293 88.876 25.928 88.876 27.208C88.876 28.424 88.5133 29.5013 87.788 30.44C87.0627 31.3573 86.0387 32.072 84.716 32.584C83.3933 33.0747 81.8573 33.32 80.108 33.32ZM100.635 33.32C99.9953 33.32 99.4833 33.1493 99.0993 32.808C98.7153 32.4667 98.5233 31.9973 98.5233 31.4V13.896H92.3473C91.7286 13.896 91.2379 13.7573 90.8753 13.48C90.5339 13.1813 90.3633 12.776 90.3633 12.264C90.3633 11.7307 90.5339 11.3253 90.8753 11.048C91.2166 10.7493 91.7073 10.6 92.3473 10.6H108.955C109.595 10.6 110.086 10.7493 110.427 11.048C110.769 11.3253 110.939 11.7307 110.939 12.264C110.939 12.776 110.758 13.1813 110.395 13.48C110.054 13.7573 109.574 13.896 108.955 13.896H102.779V31.4C102.779 31.976 102.577 32.4453 102.171 32.808C101.787 33.1493 101.275 33.32 100.635 33.32ZM116.645 33.32C116.005 33.32 115.493 33.1493 115.109 32.808C114.725 32.4667 114.533 31.9973 114.533 31.4V12.2C114.533 11.6027 114.725 11.1333 115.109 10.792C115.493 10.4507 116.005 10.28 116.645 10.28C117.264 10.28 117.776 10.4507 118.181 10.792C118.587 11.1333 118.789 11.6027 118.789 12.2V31.4C118.789 31.9973 118.587 32.4667 118.181 32.808C117.776 33.1493 117.264 33.32 116.645 33.32Z" fill="#8B8B8B"/>
<path d="M54.4553 54C53.8473 54 53.3753 53.84 53.0393 53.52C52.7033 53.2 52.5353 52.752 52.5353 52.176V47.376C52.5353 46.816 52.6953 46.38 53.0153 46.068C53.3433 45.756 53.7953 45.6 54.3713 45.6H57.1433C58.0713 45.6 58.7873 45.796 59.2913 46.188C59.7953 46.58 60.0473 47.148 60.0473 47.892C60.0473 48.26 59.9393 48.604 59.7233 48.924C59.5073 49.236 59.2273 49.472 58.8833 49.632V49.644C59.2673 49.796 59.5793 50.04 59.8193 50.376C60.0673 50.704 60.1913 51.06 60.1913 51.444C60.1913 52.244 59.9313 52.872 59.4113 53.328C58.8993 53.776 58.1913 54 57.2873 54H54.4553ZM57.1433 49.068C57.5513 49.068 57.8673 48.968 58.0913 48.768C58.3233 48.568 58.4393 48.28 58.4393 47.904C58.4393 47.536 58.3313 47.264 58.1153 47.088C57.8993 46.912 57.5753 46.824 57.1433 46.824H54.6233C54.4633 46.824 54.3353 46.876 54.2393 46.98C54.1513 47.084 54.1073 47.228 54.1073 47.412V49.068H57.1433ZM57.1433 52.776C58.1033 52.776 58.5833 52.34 58.5833 51.468C58.5833 51.092 58.4553 50.8 58.1993 50.592C57.9513 50.384 57.5993 50.28 57.1433 50.28H54.1073V52.188C54.1073 52.372 54.1513 52.516 54.2393 52.62C54.3353 52.724 54.4633 52.776 54.6233 52.776H57.1433ZM67.9054 45.48C68.1454 45.48 68.3374 45.544 68.4814 45.672C68.6254 45.8 68.6974 45.976 68.6974 46.2V47.46C68.6974 48.524 68.4294 49.392 67.8934 50.064C67.3574 50.728 66.6094 51.132 65.6494 51.276V53.4C65.6494 53.616 65.5734 53.792 65.4214 53.928C65.2774 54.056 65.0854 54.12 64.8454 54.12C64.6054 54.12 64.4134 54.056 64.2694 53.928C64.1254 53.8 64.0534 53.624 64.0534 53.4V51.276C63.0854 51.132 62.3334 50.728 61.7974 50.064C61.2614 49.4 60.9934 48.532 60.9934 47.46V46.2C60.9934 45.976 61.0654 45.8 61.2094 45.672C61.3534 45.544 61.5454 45.48 61.7854 45.48C62.0254 45.48 62.2174 45.548 62.3614 45.684C62.5134 45.812 62.5894 45.984 62.5894 46.2V47.496C62.5894 48.328 62.7814 48.968 63.1654 49.416C63.5574 49.856 64.1174 50.076 64.8454 50.076C65.5734 50.076 66.1294 49.856 66.5134 49.416C66.9054 48.968 67.1014 48.328 67.1014 47.496V46.2C67.1014 45.984 67.1734 45.812 67.3174 45.684C67.4694 45.548 67.6654 45.48 67.9054 45.48ZM73.9288 54.12C73.6888 54.12 73.4968 54.056 73.3528 53.928C73.2088 53.8 73.1368 53.624 73.1368 53.4V47.376C73.1368 46.816 73.2968 46.38 73.6168 46.068C73.9448 45.756 74.3968 45.6 74.9728 45.6H78.7048C78.9448 45.6 79.1288 45.656 79.2568 45.768C79.3848 45.872 79.4488 46.024 79.4488 46.224C79.4488 46.416 79.3808 46.568 79.2448 46.68C79.1168 46.784 78.9368 46.836 78.7048 46.836H75.2488C75.0888 46.836 74.9608 46.888 74.8648 46.992C74.7768 47.096 74.7328 47.24 74.7328 47.424V49.212H77.7928C78.0328 49.212 78.2168 49.268 78.3448 49.38C78.4728 49.484 78.5368 49.636 78.5368 49.836C78.5368 50.028 78.4688 50.18 78.3328 50.292C78.2048 50.396 78.0248 50.448 77.7928 50.448H74.7328V53.4C74.7328 53.616 74.6568 53.792 74.5048 53.928C74.3608 54.056 74.1688 54.12 73.9288 54.12ZM80.8649 54.108C80.6249 54.108 80.4329 54.044 80.2889 53.916C80.1449 53.788 80.0729 53.612 80.0729 53.388V49.188C80.0729 48.028 80.4049 47.12 81.0689 46.464C81.7329 45.808 82.6569 45.48 83.8409 45.48C84.6169 45.48 85.2889 45.628 85.8569 45.924C86.4249 46.22 86.8569 46.648 87.1529 47.208C87.4569 47.768 87.6089 48.428 87.6089 49.188V53.388C87.6089 53.612 87.5369 53.788 87.3929 53.916C87.2489 54.044 87.0569 54.108 86.8169 54.108C86.5769 54.108 86.3809 54.044 86.2289 53.916C86.0849 53.78 86.0129 53.604 86.0129 53.388V51.432H81.6689V53.388C81.6689 53.604 81.5929 53.78 81.4409 53.916C81.2969 54.044 81.1049 54.108 80.8649 54.108ZM86.0129 50.196V49.152C86.0129 48.352 85.8289 47.752 85.4609 47.352C85.1009 46.944 84.5609 46.74 83.8409 46.74C82.3929 46.74 81.6689 47.544 81.6689 49.152V50.196H86.0129ZM93.1826 54.12C92.2786 54.12 91.4946 53.948 90.8306 53.604C90.1666 53.26 89.6586 52.764 89.3066 52.116C88.9546 51.468 88.7786 50.7 88.7786 49.812C88.7786 48.924 88.9546 48.156 89.3066 47.508C89.6586 46.852 90.1626 46.352 90.8186 46.008C91.4826 45.656 92.2626 45.48 93.1586 45.48C93.9026 45.48 94.5906 45.608 95.2226 45.864C95.8546 46.12 96.3226 46.46 96.6266 46.884C96.7226 47.012 96.7706 47.144 96.7706 47.28C96.7706 47.48 96.6626 47.66 96.4466 47.82C96.3506 47.892 96.2306 47.928 96.0866 47.928C95.9666 47.928 95.8466 47.904 95.7266 47.856C95.6066 47.8 95.5066 47.724 95.4266 47.628C95.1546 47.316 94.8386 47.092 94.4786 46.956C94.1186 46.812 93.6786 46.74 93.1586 46.74C92.2866 46.74 91.6066 47.012 91.1186 47.556C90.6306 48.092 90.3866 48.844 90.3866 49.812C90.3866 50.772 90.6306 51.52 91.1186 52.056C91.6146 52.592 92.3026 52.86 93.1826 52.86C93.9106 52.86 94.4786 52.72 94.8866 52.44C95.3026 52.16 95.5106 51.772 95.5106 51.276V51.012C95.5106 50.844 95.4706 50.728 95.3906 50.664C95.3186 50.6 95.1906 50.568 95.0066 50.568H93.4346C93.2106 50.568 93.0346 50.516 92.9066 50.412C92.7786 50.3 92.7146 50.148 92.7146 49.956C92.7146 49.756 92.7746 49.604 92.8946 49.5C93.0226 49.388 93.2026 49.332 93.4346 49.332H95.7626C96.2266 49.332 96.5666 49.432 96.7826 49.632C96.9986 49.824 97.1066 50.132 97.1066 50.556V51.024C97.1066 51.632 96.9426 52.172 96.6146 52.644C96.2866 53.108 95.8226 53.472 95.2226 53.736C94.6306 53.992 93.9506 54.12 93.1826 54.12ZM102.016 54.12C101.264 54.12 100.604 53.968 100.036 53.664C99.4762 53.36 99.0402 52.928 98.7282 52.368C98.4242 51.8 98.2722 51.132 98.2722 50.364V46.2C98.2722 45.976 98.3442 45.8 98.4882 45.672C98.6322 45.544 98.8242 45.48 99.0642 45.48C99.3042 45.48 99.4962 45.548 99.6402 45.684C99.7922 45.812 99.8682 45.984 99.8682 46.2V50.4C99.8682 51.192 100.056 51.8 100.432 52.224C100.808 52.648 101.348 52.86 102.052 52.86C102.748 52.86 103.284 52.648 103.66 52.224C104.044 51.792 104.236 51.184 104.236 50.4V46.2C104.236 45.984 104.308 45.812 104.452 45.684C104.604 45.548 104.8 45.48 105.04 45.48C105.28 45.48 105.472 45.544 105.616 45.672C105.76 45.8 105.832 45.976 105.832 46.2V50.364C105.832 51.108 105.672 51.764 105.352 52.332C105.04 52.9 104.596 53.34 104.02 53.652C103.444 53.964 102.776 54.12 102.016 54.12ZM108.273 54.12C108.033 54.12 107.841 54.056 107.697 53.928C107.553 53.8 107.481 53.624 107.481 53.4V46.2C107.481 45.976 107.553 45.8 107.697 45.672C107.841 45.544 108.033 45.48 108.273 45.48C108.505 45.48 108.697 45.544 108.849 45.672C109.001 45.8 109.077 45.976 109.077 46.2V53.4C109.077 53.624 109.001 53.8 108.849 53.928C108.697 54.056 108.505 54.12 108.273 54.12ZM111.569 54.12C111.329 54.12 111.137 54.056 110.993 53.928C110.849 53.8 110.777 53.624 110.777 53.4V48.456C110.777 47.528 111.041 46.8 111.569 46.272C112.097 45.744 112.825 45.48 113.753 45.48C114.201 45.48 114.621 45.592 115.013 45.816C115.413 46.032 115.757 46.344 116.045 46.752C116.325 46.336 116.661 46.02 117.053 45.804C117.453 45.588 117.885 45.48 118.349 45.48C119.277 45.48 120.005 45.744 120.533 46.272C121.061 46.8 121.325 47.528 121.325 48.456V53.4C121.325 53.616 121.249 53.792 121.097 53.928C120.953 54.056 120.761 54.12 120.521 54.12C120.281 54.12 120.089 54.056 119.945 53.928C119.801 53.8 119.729 53.624 119.729 53.4V48.456C119.729 47.848 119.617 47.412 119.393 47.148C119.169 46.876 118.801 46.74 118.289 46.74C117.825 46.74 117.465 46.888 117.209 47.184C116.961 47.48 116.837 47.904 116.837 48.456V53.4C116.837 53.624 116.765 53.8 116.621 53.928C116.477 54.056 116.285 54.12 116.045 54.12C115.805 54.12 115.613 54.056 115.469 53.928C115.333 53.8 115.265 53.624 115.265 53.4V48.456C115.265 47.92 115.137 47.5 114.881 47.196C114.625 46.892 114.269 46.74 113.813 46.74C113.301 46.74 112.933 46.876 112.709 47.148C112.485 47.412 112.373 47.848 112.373 48.456V53.4C112.373 53.616 112.297 53.792 112.145 53.928C112.001 54.056 111.809 54.12 111.569 54.12Z" fill="#8B8B8B"/>
</svg>
